<?xml version="1.0" encoding="utf-8"?>
<!-- Generator: Adobe Illustrator 17.0.0, SVG Export Plug-In . SVG Version: 6.00 Build 0)  -->
<!DOCTYPE svg PUBLIC "-//W3C//DTD SVG 1.1//EN" "http://www.w3.org/Graphics/SVG/1.1/DTD/svg11.dtd">
<svg version="1.1" id="Layer_1" xmlns="http://www.w3.org/2000/svg" xmlns:xlink="http://www.w3.org/1999/xlink" x="0px" y="0px"
	 width="400px" height="400px" viewBox="0 0 400 400" enable-background="new 0 0 400 400" xml:space="preserve">
<linearGradient id="SVGID_1_" gradientUnits="userSpaceOnUse" x1="199.9337" y1="4.251" x2="199.9337" y2="395.8359">
	<stop  offset="0" style="stop-color:#FE5E00"/>
	<stop  offset="0.2153" style="stop-color:#F65716"/>
	<stop  offset="0.4838" style="stop-color:#EF502B"/>
	<stop  offset="0.7478" style="stop-color:#EA4B38"/>
	<stop  offset="1" style="stop-color:#E94A3C"/>
</linearGradient>
<path fill="url(#SVGID_1_)" d="M199.934,4.251C91.801,4.251,4.141,91.91,4.141,200.043s87.659,195.792,195.792,195.792
	s195.792-87.659,195.792-195.792S308.067,4.251,199.934,4.251z M95.092,202.289c-29.205,1.142-33-24.269-33-24.269
	s21.287-4.811,37.936-0.764c16.649,4.047,16.923,4.415,36.651,18.064c5.172,3.583,22.891,20.374,22.868,20.357
	C146.353,205.851,129.941,201.07,95.092,202.289z M182.493,229.181c-23.517-15.931-46.259-49.769-77.377-55.757
	c-31.175-5.999-46.019,5.083-39.852-2.813c6.167-7.896,41.369-11.221,73.989-7.428s65.432,24.294,94.066,29.585
	c28.634,5.292,131.954,31.482,118.299,44.757C331.426,257.157,206.009,245.111,182.493,229.181z"/>
</svg>
