<?xml version="1.0" encoding="utf-8"?>
<!-- Generator: Adobe Illustrator 17.0.0, SVG Export Plug-In . SVG Version: 6.00 Build 0)  -->
<!DOCTYPE svg PUBLIC "-//W3C//DTD SVG 1.1//EN" "http://www.w3.org/Graphics/SVG/1.1/DTD/svg11.dtd">
<svg version="1.1" id="Calque_1" xmlns="http://www.w3.org/2000/svg" xmlns:xlink="http://www.w3.org/1999/xlink" x="0px" y="0px"
	 width="1417.323px" height="850.394px" viewBox="0 0 1417.323 850.394" enable-background="new 0 0 1417.323 850.394"
	 xml:space="preserve">
<path fill="#EDEDEE" d="M990.93,830.679H477.876c-6.819,0-12.347-5.528-12.347-12.347V647.724c0-6.819,5.528-12.347,12.347-12.347
	H990.93c6.819,0,12.347,5.528,12.347,12.347v170.607C1003.278,825.151,997.75,830.679,990.93,830.679z"/>
<ellipse fill="none" stroke="#010101" stroke-width="5" stroke-miterlimit="10" cx="420.835" cy="275.624" rx="71.473" ry="29.719"/>
<path fill="none" stroke="#010101" stroke-width="3" stroke-miterlimit="10" d="M568.111,317.892l16.606,17.768l-8.004,10.302
	v-36.81l8.004,9.839l-16.606,17.305"/>
<linearGradient id="path3277-1_2_" gradientUnits="userSpaceOnUse" x1="174.7247" y1="597.5289" x2="174.7247" y2="105.3444">
	<stop  offset="0" style="stop-color:#F56737"/>
	<stop  offset="1" style="stop-color:#F3524B"/>
</linearGradient>
<path id="path3277-1_1_" fill="url(#path3277-1_2_)" d="M154.282,105.356c-15.642,0.404-29.271,11.778-36.647,27.307
	c-18.963,39.922-23.073,86.382-24.18,131.128c-0.863,34.867,17.046,63.43,30.513,92.481c9.473,20.436,5.302,43.722-3.22,63.206
	c-15.766,36.048-34.482,75.728-27.042,117.249c5.861,29.855,20.458,61.578,64.391,60.788c28.723,0.165,50.861-26.972,59.065-55.681
	c11.681-40.878,12.781-84.654,17.714-127.163c3.468-29.881,12.674-57.931,18.562-87.103c10.857-53.787-1.443-110.21-25.068-157.173
	c-14.883-29.585-36.871-60.899-69.174-64.813C157.541,105.381,155.9,105.315,154.282,105.356z"/>
<rect x="90.474" y="612.984" fill="none" width="129.885" height="20.617"/>
<text transform="matrix(1 0 0 1 90.474 623.6514)" font-family="'Roboto-Regular'" font-size="14">Semelle connectée</text>
<text transform="matrix(1 0 0 1 242.7563 472.8432)"><tspan x="0" y="0" font-family="'Roboto-Regular'" font-size="14">Capteurs FSR </tspan><tspan x="0" y="18" font-family="'Roboto-Regular'" font-size="14">Force Sensitive Sensors</tspan><tspan x="0" y="36" font-family="'Roboto-Regular'" font-size="14">Touch Micro 10</tspan></text>
<text transform="matrix(1 0 0 1 700.8394 499.1492)" font-family="'Roboto-Regular'" font-size="14">Application iOS</text>
<circle fill="#EDEDEE" cx="136.996" cy="458.076" r="15.534"/>
<circle fill="#EDEDEE" cx="209.511" cy="201.134" r="15.534"/>
<circle fill="#EDEDEE" cx="204.751" cy="473.609" r="15.534"/>
<circle fill="#EDEDEE" cx="161.109" cy="550.903" r="15.534"/>
<circle fill="#EDEDEE" cx="121.462" cy="280.336" r="15.534"/>
<circle fill="#EDEDEE" cx="235.815" cy="284.987" r="15.534"/>
<g>
	<path fill="#010101" d="M390.241,354.276h65.464c3.098,0,5.745,2.668,6.413,6.23l-6.393-70.127c0-8.818-5.869-15.974-13.101-15.974
		h-39.302c-7.232,0-13.101,7.156-13.101,15.974l-6.655,71.884l0.105-0.008C383.671,357.798,386.612,354.276,390.241,354.276z"/>
	<path fill="#010101" d="M452.482,362.263h-59.019c-5.404,0-9.793,5.319-9.793,11.981c0,6.613,4.454,11.981,9.793,11.981h59.019
		c5.404,0,9.793-5.319,9.793-11.981C462.275,367.63,457.821,362.263,452.482,362.263z M449.174,378.237h-6.55v-7.987h6.55V378.237z"
		/>
</g>
<text transform="matrix(1 0 0 1 363.5658 413.7216)" font-family="'Roboto-Regular'" font-size="14">Boîtier électronique</text>
<g>
	<path fill="#FFFFFF" d="M422.842,296.587c-8.28,0-14.993,6.712-14.993,14.993c0,8.28,6.712,14.993,14.993,14.993
		s14.993-6.712,14.993-14.993C437.834,303.3,431.122,296.587,422.842,296.587z M414.814,311.752
		c-2.236,0.087-2.527-1.858-2.527-1.858s1.63-0.368,2.905-0.059c1.275,0.31,1.296,0.338,2.806,1.383
		c0.396,0.274,1.753,1.56,1.751,1.559C418.739,312.025,417.482,311.659,414.814,311.752z M421.506,313.811
		c-1.801-1.22-3.542-3.811-5.925-4.27c-2.387-0.459-3.524,0.389-3.052-0.215c0.472-0.605,3.168-0.859,5.666-0.569
		c2.498,0.29,5.01,1.86,7.203,2.265c2.193,0.405,10.104,2.411,9.059,3.427C432.911,315.953,423.307,315.031,421.506,313.811z"/>
</g>
<g>
	
		<line fill="none" stroke="#D7D7DB" stroke-linecap="round" stroke-linejoin="round" x1="204.751" y1="458.099" x2="204.751" y2="346.488"/>
	
		<line fill="none" stroke="#D7D7DB" stroke-linecap="round" stroke-linejoin="round" x1="136.996" y1="442.542" x2="136.996" y2="346.488"/>
	
		<line fill="none" stroke="#D7D7DB" stroke-width="3.9134" stroke-linecap="round" x1="134.187" y1="328.398" x2="383.051" y2="328.398"/>
	
		<line fill="none" stroke="#D7D7DB" stroke-linecap="round" stroke-linejoin="round" x1="160.969" y1="549.712" x2="160.969" y2="346.488"/>
	
		<line fill="none" stroke="#D7D7DB" stroke-linecap="round" stroke-linejoin="round" x1="149.721" y1="310.964" x2="149.721" y2="166.233"/>
	
		<line fill="none" stroke="#D7D7DB" stroke-linecap="round" stroke-linejoin="round" x1="209.511" y1="310.964" x2="209.511" y2="216.842"/>
	
		<line fill="none" stroke="#D7D7DB" stroke-linecap="round" stroke-linejoin="round" x1="235.815" y1="310.964" x2="235.815" y2="300.828"/>
	
		<line fill="none" stroke="#D7D7DB" stroke-width="0.9559" stroke-linecap="round" stroke-linejoin="round" x1="235.815" y1="310.964" x2="253.629" y2="328.778"/>
	
		<line fill="none" stroke="#D7D7DB" stroke-width="0.9422" stroke-linecap="round" stroke-linejoin="round" x1="209.511" y1="310.964" x2="226.817" y2="328.271"/>
	
		<line fill="none" stroke="#D7D7DB" stroke-width="0.9463" stroke-linecap="round" stroke-linejoin="round" x1="149.821" y1="310.964" x2="167.278" y2="328.42"/>
	
		<line fill="none" stroke="#D7D7DB" stroke-width="0.9496" stroke-linecap="round" stroke-linejoin="round" x1="121.462" y1="310.964" x2="139.043" y2="328.544"/>
	
		<line fill="none" stroke="#D7D7DB" stroke-linecap="round" stroke-linejoin="round" x1="180.464" y1="326.993" x2="160.969" y2="346.488"/>
	
		<line fill="none" stroke="#D7D7DB" stroke-linecap="round" stroke-linejoin="round" x1="224.246" y1="326.993" x2="204.751" y2="346.488"/>
	
		<line fill="none" stroke="#D7D7DB" stroke-linecap="round" stroke-linejoin="round" x1="156.491" y1="326.993" x2="136.996" y2="346.488"/>
	
		<line fill="none" stroke="#D7D7DB" stroke-linecap="round" stroke-linejoin="round" x1="121.462" y1="310.964" x2="121.462" y2="295.76"/>
</g>
<g>
	
		<line fill="none" stroke="#D7D7DB" stroke-width="3.9134" stroke-linecap="round" x1="528.959" y1="329.618" x2="542.711" y2="329.618"/>
	
		<line fill="none" stroke="#D7D7DB" stroke-width="3.9134" stroke-linecap="round" x1="502.884" y1="329.434" x2="516.636" y2="329.434"/>
	
		<line fill="none" stroke="#D7D7DB" stroke-width="3.9134" stroke-linecap="round" x1="476.383" y1="329.434" x2="490.135" y2="329.434"/>
	
		<line fill="none" stroke="#D7D7DB" stroke-width="3.9134" stroke-linecap="round" x1="661.206" y1="329.526" x2="674.959" y2="329.526"/>
	
		<line fill="none" stroke="#D7D7DB" stroke-width="3.9134" stroke-linecap="round" x1="633.705" y1="329.526" x2="647.458" y2="329.526"/>
	
		<line fill="none" stroke="#D7D7DB" stroke-width="3.9134" stroke-linecap="round" x1="608.63" y1="329.343" x2="622.382" y2="329.343"/>
</g>
<rect x="261.594" y="343.99" fill="none" width="111.707" height="17.531"/>
<text transform="matrix(1 0 0 1 261.5941 354.6576)" font-family="'Roboto-Regular'" font-size="14">Connexion filaire</text>
<rect x="513.053" y="259.917" fill="none" width="137.696" height="41.967"/>
<text transform="matrix(1 0 0 1 524.0173 270.5854)"><tspan x="0" y="0" font-family="'Roboto-Regular'" font-size="14">Connexion sans fil</tspan><tspan x="22.521" y="16.8" font-family="'Roboto-Regular'" font-size="14">(Bluetooth)</tspan></text>
<path fill="#009A9B" d="M598.531,799.401h-40.107c-3.425,0-6.201-2.776-6.201-6.201V687.323c0-3.425,2.776-6.201,6.201-6.201h40.107
	c3.425,0,6.201,2.776,6.201,6.201V793.2C604.732,796.625,601.956,799.401,598.531,799.401z"/>
<path fill="#134E92" d="M672.155,752.896h-26.677c-3.745,0-6.782-3.036-6.782-6.782v-30.826c0-3.745,3.036-6.782,6.782-6.782h26.677
	c3.745,0,6.782,3.036,6.782,6.782v30.826C678.937,749.86,675.901,752.896,672.155,752.896z"/>
<g id="g2449_5_" transform="matrix(3.3579302,0,0,3.3579302,126.17271,68.361752)">
	<g id="g2451_5_">
		<g id="breadboard_5_">
			<g id="g2454_3_">
				<path id="path2458_3_" inkscape:connector-curvature="0" fill="none" d="M154.997,200.405h8.124 M154.997,200.951h8.124"/>
			</g>
			<g id="g2468_5_">
				<g id="g2470_5_">
					<rect id="rect2472_5_" x="153.589" y="192.128" fill="#828485" width="0.347" height="0.358"/>
					<rect id="rect2474_5_" x="153.674" y="192.215" fill="#818066" width="0.178" height="0.184"/>
					<polygon id="polygon2476_5_" fill="#ACA784" points="153.674,192.215 153.852,192.215 153.936,192.128 153.589,192.128 					
						"/>
					<polygon id="polygon2478_5_" fill="#76735E" points="153.852,192.215 153.936,192.128 153.936,192.487 153.852,192.399 					
						"/>
					<polyline id="polygon2480_6_" fill="#555645" points="153.936,192.487 153.589,192.487 153.674,192.399 					"/>
					<polyline id="polygon2482_6_" fill="#8F8A6E" points="153.589,192.487 153.589,192.128 153.674,192.215 					"/>
					<rect id="rect2484_5_" x="153.589" y="193.25" fill="#828485" width="0.347" height="0.358"/>
					<rect id="rect2486_5_" x="153.674" y="193.337" fill="#818066" width="0.178" height="0.184"/>
					<polygon id="polygon2488_5_" fill="#ACA784" points="153.674,193.337 153.852,193.337 153.936,193.25 153.589,193.25 					"/>
					<polygon id="polygon2490_5_" fill="#76735E" points="153.852,193.337 153.936,193.25 153.936,193.609 153.852,193.522 					"/>
					<polygon id="polygon2492_5_" fill="#555645" points="153.852,193.522 153.936,193.609 153.589,193.609 153.674,193.522 					
						"/>
					<polygon id="polygon2494_5_" fill="#8F8A6E" points="153.674,193.337 153.674,193.522 153.589,193.609 153.589,193.25 					"/>
					<rect id="rect2496_5_" x="153.589" y="194.372" fill="#828485" width="0.347" height="0.358"/>
					<rect id="rect2498_5_" x="153.674" y="194.459" fill="#818066" width="0.178" height="0.184"/>
					<polygon id="polygon2500_5_" fill="#ACA784" points="153.674,194.459 153.852,194.459 153.936,194.372 153.589,194.372 					
						"/>
					<polygon id="polygon2502_5_" fill="#76735E" points="153.852,194.459 153.936,194.372 153.936,194.73 153.852,194.643 					"/>
					<polygon id="polygon2504_5_" fill="#555645" points="153.852,194.643 153.936,194.73 153.589,194.73 153.674,194.643 					"/>
					<polygon id="polygon2506_5_" fill="#8F8A6E" points="153.674,194.459 153.674,194.643 153.589,194.73 153.589,194.372 					"/>
					<rect id="rect2508_5_" x="153.589" y="195.494" fill="#828485" width="0.347" height="0.358"/>
					<rect id="rect2510_5_" x="153.674" y="195.581" fill="#818066" width="0.178" height="0.184"/>
					<polygon id="polygon2512_5_" fill="#ACA784" points="153.674,195.581 153.852,195.581 153.936,195.494 153.589,195.494 					
						"/>
					<polygon id="polygon2514_5_" fill="#76735E" points="153.852,195.581 153.936,195.494 153.936,195.852 153.852,195.765 					
						"/>
					<polygon id="polygon2516_5_" fill="#555645" points="153.852,195.765 153.936,195.852 153.589,195.852 153.674,195.765 					
						"/>
					<polygon id="polygon2518_5_" fill="#8F8A6E" points="153.674,195.581 153.674,195.765 153.589,195.852 153.589,195.494 					
						"/>
					<rect id="rect2520_5_" x="153.589" y="196.616" fill="#828485" width="0.347" height="0.358"/>
					<rect id="rect2522_5_" x="153.674" y="196.703" fill="#818066" width="0.178" height="0.184"/>
					<polygon id="polygon2524_5_" fill="#ACA784" points="153.674,196.703 153.852,196.703 153.936,196.616 153.589,196.616 					
						"/>
					<polygon id="polygon2526_5_" fill="#76735E" points="153.852,196.703 153.936,196.616 153.936,196.974 153.852,196.887 					
						"/>
					<polygon id="polygon2528_5_" fill="#555645" points="153.852,196.887 153.936,196.974 153.589,196.974 153.674,196.887 					
						"/>
					<polygon id="polygon2530_5_" fill="#8F8A6E" points="153.674,196.703 153.674,196.887 153.589,196.974 153.589,196.616 					
						"/>
					<rect id="rect2532_5_" x="153.589" y="197.738" fill="#828485" width="0.347" height="0.358"/>
					<rect id="rect2534_5_" x="153.674" y="197.825" fill="#818066" width="0.178" height="0.184"/>
					<polygon id="polygon2536_5_" fill="#ACA784" points="153.674,197.825 153.852,197.825 153.936,197.738 153.589,197.738 					
						"/>
					<polygon id="polygon2538_5_" fill="#76735E" points="153.852,197.825 153.936,197.738 153.936,198.096 153.852,198.009 					
						"/>
					<polygon id="polygon2540_5_" fill="#555645" points="153.852,198.009 153.936,198.096 153.589,198.096 153.674,198.009 					
						"/>
					<polygon id="polygon2542_5_" fill="#8F8A6E" points="153.674,197.825 153.674,198.009 153.589,198.096 153.589,197.738 					
						"/>
					<rect id="rect2544_5_" x="153.589" y="198.859" fill="#828485" width="0.347" height="0.358"/>
					<rect id="rect2546_5_" x="153.674" y="198.947" fill="#818066" width="0.178" height="0.184"/>
					<polygon id="polygon2548_5_" fill="#ACA784" points="153.674,198.947 153.852,198.947 153.936,198.859 153.589,198.859 					
						"/>
					<polygon id="polygon2550_5_" fill="#76735E" points="153.852,198.947 153.936,198.859 153.936,199.218 153.852,199.131 					
						"/>
					<polygon id="polygon2552_5_" fill="#555645" points="153.852,199.131 153.936,199.218 153.589,199.218 153.674,199.131 					
						"/>
					<polygon id="polygon2554_5_" fill="#8F8A6E" points="153.674,198.947 153.674,199.131 153.589,199.218 153.589,198.859 					
						"/>
					<rect id="rect2556_3_" x="153.589" y="199.982" fill="#828485" width="0.347" height="0.358"/>
					<rect id="rect2558_3_" x="153.674" y="200.068" fill="#818066" width="0.178" height="0.184"/>
					<polygon id="polygon2560_3_" fill="#ACA784" points="153.674,200.068 153.852,200.068 153.936,199.982 153.589,199.982 					
						"/>
					<polygon id="polygon2562_3_" fill="#76735E" points="153.852,200.068 153.936,199.982 153.936,200.34 153.852,200.253 					"/>
					<polygon id="polygon2564_3_" fill="#555645" points="153.852,200.253 153.936,200.34 153.589,200.34 153.674,200.253 					"/>
					<polygon id="polygon2566_3_" fill="#8F8A6E" points="153.674,200.068 153.674,200.253 153.589,200.34 153.589,199.982 					"/>
					<rect id="rect2568_3_" x="153.589" y="201.103" fill="#828485" width="0.347" height="0.358"/>
					<rect id="rect2570_3_" x="153.674" y="201.19" fill="#818066" width="0.178" height="0.184"/>
					<polygon id="polygon2572_3_" fill="#ACA784" points="153.674,201.19 153.852,201.19 153.936,201.103 153.589,201.103 					"/>
					<polygon id="polygon2574_3_" fill="#76735E" points="153.852,201.19 153.936,201.103 153.936,201.461 153.852,201.374 					"/>
					<polygon id="polygon2576_3_" fill="#555645" points="153.852,201.374 153.936,201.461 153.589,201.461 153.674,201.374 					
						"/>
					<polygon id="polygon2578_3_" fill="#8F8A6E" points="153.674,201.19 153.674,201.374 153.589,201.461 153.589,201.103 					"/>
					<rect id="rect2580_3_" x="153.589" y="202.225" fill="#828485" width="0.347" height="0.358"/>
					<rect id="rect2582_3_" x="153.674" y="202.312" fill="#818066" width="0.178" height="0.185"/>
					<polygon id="polygon2584_3_" fill="#ACA784" points="153.674,202.312 153.852,202.312 153.936,202.225 153.589,202.225 					
						"/>
					<polygon id="polygon2586_3_" fill="#76735E" points="153.852,202.312 153.936,202.225 153.936,202.583 153.852,202.496 					
						"/>
					<polygon id="polygon2588_3_" fill="#555645" points="153.852,202.496 153.936,202.583 153.589,202.583 153.674,202.496 					
						"/>
					<polygon id="polygon2590_3_" fill="#8F8A6E" points="153.674,202.312 153.674,202.496 153.589,202.583 153.589,202.225 					
						"/>
				</g>
				<g id="g2592_5_">
					<rect id="rect2594_5_" x="163.374" y="192.128" fill="#828485" width="0.347" height="0.358"/>
					<rect id="rect2596_5_" x="163.458" y="192.215" fill="#818066" width="0.178" height="0.184"/>
					<polygon id="polygon2598_5_" fill="#ACA784" points="163.458,192.215 163.636,192.215 163.721,192.128 163.374,192.128 					
						"/>
					<polygon id="polygon2600_5_" fill="#76735E" points="163.636,192.215 163.721,192.128 163.721,192.487 163.636,192.399 					
						"/>
					<polygon id="polygon2602_5_" fill="#555645" points="163.636,192.399 163.721,192.487 163.374,192.487 163.458,192.399 					
						"/>
					<polygon id="polygon2604_5_" fill="#8F8A6E" points="163.458,192.215 163.458,192.399 163.374,192.487 163.374,192.128 					
						"/>
					<rect id="rect2606_5_" x="163.374" y="193.25" fill="#828485" width="0.347" height="0.358"/>
					<rect id="rect2608_5_" x="163.458" y="193.337" fill="#818066" width="0.178" height="0.184"/>
					<polygon id="polygon2610_5_" fill="#ACA784" points="163.458,193.337 163.636,193.337 163.721,193.25 163.374,193.25 					"/>
					<polygon id="polygon2612_5_" fill="#76735E" points="163.636,193.337 163.721,193.25 163.721,193.609 163.636,193.522 					"/>
					<polygon id="polygon2614_5_" fill="#555645" points="163.636,193.522 163.721,193.609 163.374,193.609 163.458,193.522 					
						"/>
					<polygon id="polygon2616_5_" fill="#8F8A6E" points="163.458,193.337 163.458,193.522 163.374,193.609 163.374,193.25 					"/>
					<rect id="rect2618_5_" x="163.374" y="194.372" fill="#828485" width="0.347" height="0.358"/>
					<rect id="rect2620_5_" x="163.458" y="194.459" fill="#818066" width="0.178" height="0.184"/>
					<polygon id="polygon2622_5_" fill="#ACA784" points="163.458,194.459 163.636,194.459 163.721,194.372 163.374,194.372 					
						"/>
					<polygon id="polygon2624_5_" fill="#76735E" points="163.636,194.459 163.721,194.372 163.721,194.73 163.636,194.643 					"/>
					<polygon id="polygon2626_5_" fill="#555645" points="163.636,194.643 163.721,194.73 163.374,194.73 163.458,194.643 					"/>
					<polygon id="polygon2628_5_" fill="#8F8A6E" points="163.458,194.459 163.458,194.643 163.374,194.73 163.374,194.372 					"/>
					<rect id="rect2630_5_" x="163.374" y="195.494" fill="#828485" width="0.347" height="0.358"/>
					<rect id="rect2632_5_" x="163.458" y="195.581" fill="#818066" width="0.178" height="0.184"/>
					<polygon id="polygon2634_5_" fill="#ACA784" points="163.458,195.581 163.636,195.581 163.721,195.494 163.374,195.494 					
						"/>
					<polygon id="polygon2636_5_" fill="#76735E" points="163.636,195.581 163.721,195.494 163.721,195.852 163.636,195.765 					
						"/>
					<polygon id="polygon2638_5_" fill="#555645" points="163.636,195.765 163.721,195.852 163.374,195.852 163.458,195.765 					
						"/>
					<polygon id="polygon2640_5_" fill="#8F8A6E" points="163.458,195.581 163.458,195.765 163.374,195.852 163.374,195.494 					
						"/>
					<rect id="rect2642_5_" x="163.374" y="196.616" fill="#828485" width="0.347" height="0.358"/>
					<rect id="rect2644_5_" x="163.458" y="196.703" fill="#818066" width="0.178" height="0.184"/>
					<polygon id="polygon2646_5_" fill="#ACA784" points="163.458,196.703 163.636,196.703 163.721,196.616 163.374,196.616 					
						"/>
					<polygon id="polygon2648_5_" fill="#76735E" points="163.636,196.703 163.721,196.616 163.721,196.974 163.636,196.887 					
						"/>
					<polygon id="polygon2650_5_" fill="#555645" points="163.636,196.887 163.721,196.974 163.374,196.974 163.458,196.887 					
						"/>
					<polygon id="polygon2652_5_" fill="#8F8A6E" points="163.458,196.703 163.458,196.887 163.374,196.974 163.374,196.616 					
						"/>
					<rect id="rect2654_5_" x="163.374" y="197.738" fill="#828485" width="0.347" height="0.358"/>
					<rect id="rect2656_5_" x="163.458" y="197.825" fill="#818066" width="0.178" height="0.184"/>
					<polygon id="polygon2658_5_" fill="#ACA784" points="163.458,197.825 163.636,197.825 163.721,197.738 163.374,197.738 					
						"/>
					<polygon id="polygon2660_5_" fill="#76735E" points="163.636,197.825 163.721,197.738 163.721,198.096 163.636,198.009 					
						"/>
					<polygon id="polygon2662_5_" fill="#555645" points="163.636,198.009 163.721,198.096 163.374,198.096 163.458,198.009 					
						"/>
					<polygon id="polygon2664_5_" fill="#8F8A6E" points="163.458,197.825 163.458,198.009 163.374,198.096 163.374,197.738 					
						"/>
					<rect id="rect2666_5_" x="163.374" y="198.859" fill="#828485" width="0.347" height="0.358"/>
					<rect id="rect2668_5_" x="163.458" y="198.947" fill="#818066" width="0.178" height="0.184"/>
					<polygon id="polygon2670_5_" fill="#ACA784" points="163.458,198.947 163.636,198.947 163.721,198.859 163.374,198.859 					
						"/>
					<polygon id="polygon2672_5_" fill="#76735E" points="163.636,198.947 163.721,198.859 163.721,199.218 163.636,199.131 					
						"/>
					<polygon id="polygon2674_5_" fill="#555645" points="163.636,199.131 163.721,199.218 163.374,199.218 163.458,199.131 					
						"/>
					<polygon id="polygon2676_5_" fill="#8F8A6E" points="163.458,198.947 163.458,199.131 163.374,199.218 163.374,198.859 					
						"/>
					<rect id="rect2678_3_" x="163.374" y="199.982" fill="#828485" width="0.347" height="0.358"/>
					<rect id="rect2680_3_" x="163.458" y="200.068" fill="#818066" width="0.178" height="0.184"/>
					<polygon id="polygon2682_3_" fill="#ACA784" points="163.458,200.068 163.636,200.068 163.721,199.982 163.374,199.982 					
						"/>
					<polygon id="polygon2684_3_" fill="#76735E" points="163.636,200.068 163.721,199.982 163.721,200.34 163.636,200.253 					"/>
					<polygon id="polygon2686_3_" fill="#555645" points="163.636,200.253 163.721,200.34 163.374,200.34 163.458,200.253 					"/>
					<polygon id="polygon2688_3_" fill="#8F8A6E" points="163.458,200.068 163.458,200.253 163.374,200.34 163.374,199.982 					"/>
					<rect id="rect2690_3_" x="163.374" y="201.103" fill="#828485" width="0.347" height="0.358"/>
					<rect id="rect2692_3_" x="163.458" y="201.19" fill="#818066" width="0.178" height="0.184"/>
					<polygon id="polygon2694_3_" fill="#ACA784" points="163.458,201.19 163.636,201.19 163.721,201.103 163.374,201.103 					"/>
					<polygon id="polygon2696_3_" fill="#76735E" points="163.636,201.19 163.721,201.103 163.721,201.461 163.636,201.374 					"/>
					<polygon id="polygon2698_3_" fill="#555645" points="163.636,201.374 163.721,201.461 163.374,201.461 163.458,201.374 					
						"/>
					<polygon id="polygon2700_3_" fill="#8F8A6E" points="163.458,201.19 163.458,201.374 163.374,201.461 163.374,201.103 					"/>
					<rect id="rect2702_3_" x="163.374" y="202.225" fill="#828485" width="0.347" height="0.358"/>
					<rect id="rect2704_3_" x="163.458" y="202.312" fill="#818066" width="0.178" height="0.185"/>
					<polygon id="polygon2706_3_" fill="#ACA784" points="163.458,202.312 163.636,202.312 163.721,202.225 163.374,202.225 					
						"/>
					<polygon id="polygon2708_3_" fill="#76735E" points="163.636,202.312 163.721,202.225 163.721,202.583 163.636,202.496 					
						"/>
					<polygon id="polygon2710_3_" fill="#555645" points="163.636,202.496 163.721,202.583 163.374,202.583 163.458,202.496 					
						"/>
					<polygon id="polygon2712_3_" fill="#8F8A6E" points="163.458,202.312 163.458,202.496 163.374,202.583 163.374,202.225 					
						"/>
				</g>
			</g>
		</g>
	</g>
</g>
<path id="path5551_1_" inkscape:connector-curvature="0" fill="#5DBC57" stroke="#5DBC57" stroke-width="0.625" stroke-linejoin="round" d="
	M626.238,691.252"/>
<rect x="640.776" y="732.269" fill="none" width="36.082" height="12.428"/>
<text transform="matrix(1 0 0 1 648.3658 739.7727)" fill="#FFFFFF" font-family="'Varela'" font-size="3.9286">Bluetooth LE</text>
<path fill="none" stroke="#FFFFFF" d="M655.716,722.805l6.203,6.637l-2.99,3.848v-13.75l2.99,3.675l-6.203,6.464"/>
<g id="g8-1_3_" transform="translate(-365.79452,0.52773446)">
	<g id="text12-4_3_">
	</g>
	<g id="text10-7_3_" transform="scale(1.5645974,0.63914206)">
		<path id="path3078_3_" fill="none" stroke="#FFFFFF" stroke-miterlimit="10" d="M597.813,1145.908v-0.702h2.144v0.702H597.813z"/>
	</g>
</g>
<rect x="554.006" y="743.655" fill="none" width="51.283" height="12.736"/>
<text transform="matrix(1 0 0 1 572.9856 746.4446)" fill="#FFFFFF" font-family="'Varela'" font-size="3.9286">Arduino</text>
<g id="g4_1_">
	<path id="path6_1_" fill="none" stroke="#FFFFFF" stroke-miterlimit="10" d="M571.028,727.259c-3.236,0-5.86,2.524-5.86,5.637
		s2.624,5.637,5.86,5.637c7.65,0.403,6.845-11.274,14.897-11.274c3.236,0,5.86,2.524,5.86,5.637s-2.624,5.637-5.86,5.637
		C578.276,738.935,579.081,727.259,571.028,727.259"/>
</g>
<g id="g8_3_" transform="translate(0,10)">
	<g id="text10_3_">
		<path id="path3075_3_" fill="none" stroke="#FFFFFF" stroke-miterlimit="10" d="M585.284,724.292v-1.32h-1.31v-0.552h1.31v-1.31
			h0.558v1.31h1.31v0.552h-1.31v1.32H585.284z"/>
	</g>
</g>
<g id="g2449_4_" transform="matrix(3.3579302,0,0,3.3579302,126.17271,68.361752)">
	<g id="g2451_4_">
		<g id="breadboard_4_">
			<g id="g2454_2_">
				<path id="path2458_2_" inkscape:connector-curvature="0" fill="none" d="M129.65,198.988h11.212 M129.65,199.929h11.212"/>
			</g>
			<g id="g2468_4_">
				<g id="g2470_4_">
					<rect id="rect2472_4_" x="127.706" y="184.717" fill="#828485" width="0.479" height="0.618"/>
					<rect id="rect2474_4_" x="127.823" y="184.867" fill="#818066" width="0.246" height="0.318"/>
					<polygon id="polygon2476_4_" fill="#ACA784" points="127.823,184.867 128.069,184.867 128.185,184.717 127.706,184.717 					
						"/>
					<polygon id="polygon2478_4_" fill="#76735E" points="128.069,184.867 128.185,184.717 128.185,185.335 128.069,185.184 					
						"/>
					<polyline id="polygon2480_5_" fill="#555645" points="128.185,185.335 127.706,185.335 127.823,185.184 					"/>
					<polyline id="polygon2482_5_" fill="#8F8A6E" points="127.706,185.335 127.706,184.717 127.823,184.867 					"/>
					<rect id="rect2484_4_" x="127.706" y="186.652" fill="#828485" width="0.479" height="0.618"/>
					<rect id="rect2486_4_" x="127.823" y="186.801" fill="#818066" width="0.246" height="0.318"/>
					<polygon id="polygon2488_4_" fill="#ACA784" points="127.823,186.801 128.069,186.801 128.185,186.652 127.706,186.652 					
						"/>
					<polygon id="polygon2490_4_" fill="#76735E" points="128.069,186.801 128.185,186.652 128.185,187.269 128.069,187.119 					
						"/>
					<polygon id="polygon2492_4_" fill="#555645" points="128.069,187.119 128.185,187.269 127.706,187.269 127.823,187.119 					
						"/>
					<polygon id="polygon2494_4_" fill="#8F8A6E" points="127.823,186.801 127.823,187.119 127.706,187.269 127.706,186.652 					
						"/>
					<rect id="rect2496_4_" x="127.706" y="188.586" fill="#828485" width="0.479" height="0.618"/>
					<rect id="rect2498_4_" x="127.823" y="188.736" fill="#818066" width="0.246" height="0.318"/>
					<polygon id="polygon2500_4_" fill="#ACA784" points="127.823,188.736 128.069,188.736 128.185,188.586 127.706,188.586 					
						"/>
					<polygon id="polygon2502_4_" fill="#76735E" points="128.069,188.736 128.185,188.586 128.185,189.203 128.069,189.053 					
						"/>
					<polygon id="polygon2504_4_" fill="#555645" points="128.069,189.053 128.185,189.203 127.706,189.203 127.823,189.053 					
						"/>
					<polygon id="polygon2506_4_" fill="#8F8A6E" points="127.823,188.736 127.823,189.053 127.706,189.203 127.706,188.586 					
						"/>
					<rect id="rect2508_4_" x="127.706" y="190.52" fill="#828485" width="0.479" height="0.618"/>
					<rect id="rect2510_4_" x="127.823" y="190.67" fill="#818066" width="0.246" height="0.318"/>
					<polygon id="polygon2512_4_" fill="#ACA784" points="127.823,190.67 128.069,190.67 128.185,190.52 127.706,190.52 					"/>
					<polygon id="polygon2514_4_" fill="#76735E" points="128.069,190.67 128.185,190.52 128.185,191.138 128.069,190.988 					"/>
					<polygon id="polygon2516_4_" fill="#555645" points="128.069,190.988 128.185,191.138 127.706,191.138 127.823,190.988 					
						"/>
					<polygon id="polygon2518_4_" fill="#8F8A6E" points="127.823,190.67 127.823,190.988 127.706,191.138 127.706,190.52 					"/>
					<rect id="rect2520_4_" x="127.706" y="192.455" fill="#828485" width="0.479" height="0.618"/>
					<rect id="rect2522_4_" x="127.823" y="192.605" fill="#818066" width="0.246" height="0.318"/>
					<polygon id="polygon2524_4_" fill="#ACA784" points="127.823,192.605 128.069,192.605 128.185,192.455 127.706,192.455 					
						"/>
					<polygon id="polygon2526_4_" fill="#76735E" points="128.069,192.605 128.185,192.455 128.185,193.072 128.069,192.922 					
						"/>
					<polygon id="polygon2528_4_" fill="#555645" points="128.069,192.922 128.185,193.072 127.706,193.072 127.823,192.922 					
						"/>
					<polygon id="polygon2530_4_" fill="#8F8A6E" points="127.823,192.605 127.823,192.922 127.706,193.072 127.706,192.455 					
						"/>
					<rect id="rect2532_4_" x="127.706" y="194.389" fill="#828485" width="0.479" height="0.618"/>
					<rect id="rect2534_4_" x="127.823" y="194.539" fill="#818066" width="0.246" height="0.318"/>
					<polygon id="polygon2536_4_" fill="#ACA784" points="127.823,194.539 128.069,194.539 128.185,194.389 127.706,194.389 					
						"/>
					<polygon id="polygon2538_4_" fill="#76735E" points="128.069,194.539 128.185,194.389 128.185,195.007 128.069,194.857 					
						"/>
					<polygon id="polygon2540_4_" fill="#555645" points="128.069,194.857 128.185,195.007 127.706,195.007 127.823,194.857 					
						"/>
					<polygon id="polygon2542_4_" fill="#8F8A6E" points="127.823,194.539 127.823,194.857 127.706,195.007 127.706,194.389 					
						"/>
					<rect id="rect2544_4_" x="127.706" y="196.323" fill="#828485" width="0.479" height="0.618"/>
					<rect id="rect2546_4_" x="127.823" y="196.474" fill="#818066" width="0.246" height="0.318"/>
					<polygon id="polygon2548_4_" fill="#ACA784" points="127.823,196.474 128.069,196.474 128.185,196.323 127.706,196.323 					
						"/>
					<polygon id="polygon2550_4_" fill="#76735E" points="128.069,196.474 128.185,196.323 128.185,196.941 128.069,196.791 					
						"/>
					<polygon id="polygon2552_4_" fill="#555645" points="128.069,196.791 128.185,196.941 127.706,196.941 127.823,196.791 					
						"/>
					<polygon id="polygon2554_4_" fill="#8F8A6E" points="127.823,196.474 127.823,196.791 127.706,196.941 127.706,196.323 					
						"/>
					<rect id="rect2556_2_" x="127.706" y="198.258" fill="#828485" width="0.479" height="0.618"/>
					<rect id="rect2558_2_" x="127.823" y="198.408" fill="#818066" width="0.246" height="0.318"/>
					<polygon id="polygon2560_2_" fill="#ACA784" points="127.823,198.408 128.069,198.408 128.185,198.258 127.706,198.258 					
						"/>
					<polygon id="polygon2562_2_" fill="#76735E" points="128.069,198.408 128.185,198.258 128.185,198.876 128.069,198.726 					
						"/>
					<polygon id="polygon2564_2_" fill="#555645" points="128.069,198.726 128.185,198.876 127.706,198.876 127.823,198.726 					
						"/>
					<polygon id="polygon2566_2_" fill="#8F8A6E" points="127.823,198.408 127.823,198.726 127.706,198.876 127.706,198.258 					
						"/>
					<rect id="rect2568_2_" x="127.706" y="200.192" fill="#828485" width="0.479" height="0.618"/>
					<rect id="rect2570_2_" x="127.823" y="200.342" fill="#818066" width="0.246" height="0.318"/>
					<polygon id="polygon2572_2_" fill="#ACA784" points="127.823,200.342 128.069,200.342 128.185,200.192 127.706,200.192 					
						"/>
					<polygon id="polygon2574_2_" fill="#76735E" points="128.069,200.342 128.185,200.192 128.185,200.81 128.069,200.66 					"/>
					<polygon id="polygon2576_2_" fill="#555645" points="128.069,200.66 128.185,200.81 127.706,200.81 127.823,200.66 					"/>
					<polygon id="polygon2578_2_" fill="#8F8A6E" points="127.823,200.342 127.823,200.66 127.706,200.81 127.706,200.192 					"/>
					<rect id="rect2580_2_" x="127.706" y="202.127" fill="#828485" width="0.479" height="0.618"/>
					<rect id="rect2582_2_" x="127.823" y="202.277" fill="#818066" width="0.246" height="0.318"/>
					<polygon id="polygon2584_2_" fill="#ACA784" points="127.823,202.277 128.069,202.277 128.185,202.127 127.706,202.127 					
						"/>
					<polygon id="polygon2586_2_" fill="#76735E" points="128.069,202.277 128.185,202.127 128.185,202.745 128.069,202.594 					
						"/>
					<polygon id="polygon2588_2_" fill="#555645" points="128.069,202.594 128.185,202.745 127.706,202.745 127.823,202.594 					
						"/>
					<polygon id="polygon2590_2_" fill="#8F8A6E" points="127.823,202.277 127.823,202.594 127.706,202.745 127.706,202.127 					
						"/>
				</g>
				<g id="g2592_4_">
					<rect id="rect2594_4_" x="141.21" y="184.717" fill="#828485" width="0.479" height="0.618"/>
					<rect id="rect2596_4_" x="141.326" y="184.867" fill="#818066" width="0.246" height="0.318"/>
					<polygon id="polygon2598_4_" fill="#ACA784" points="141.326,184.867 141.572,184.867 141.688,184.717 141.21,184.717 					"/>
					<polygon id="polygon2600_4_" fill="#76735E" points="141.572,184.867 141.688,184.717 141.688,185.335 141.572,185.184 					
						"/>
					<polygon id="polygon2602_4_" fill="#555645" points="141.572,185.184 141.688,185.335 141.21,185.335 141.326,185.184 					"/>
					<polygon id="polygon2604_4_" fill="#8F8A6E" points="141.326,184.867 141.326,185.184 141.21,185.335 141.21,184.717 					"/>
					<rect id="rect2606_4_" x="141.21" y="186.652" fill="#828485" width="0.479" height="0.618"/>
					<rect id="rect2608_4_" x="141.326" y="186.801" fill="#818066" width="0.246" height="0.318"/>
					<polygon id="polygon2610_4_" fill="#ACA784" points="141.326,186.801 141.572,186.801 141.688,186.652 141.21,186.652 					"/>
					<polygon id="polygon2612_4_" fill="#76735E" points="141.572,186.801 141.688,186.652 141.688,187.269 141.572,187.119 					
						"/>
					<polygon id="polygon2614_4_" fill="#555645" points="141.572,187.119 141.688,187.269 141.21,187.269 141.326,187.119 					"/>
					<polygon id="polygon2616_4_" fill="#8F8A6E" points="141.326,186.801 141.326,187.119 141.21,187.269 141.21,186.652 					"/>
					<rect id="rect2618_4_" x="141.21" y="188.586" fill="#828485" width="0.479" height="0.618"/>
					<rect id="rect2620_4_" x="141.326" y="188.736" fill="#818066" width="0.246" height="0.318"/>
					<polygon id="polygon2622_4_" fill="#ACA784" points="141.326,188.736 141.572,188.736 141.688,188.586 141.21,188.586 					"/>
					<polygon id="polygon2624_4_" fill="#76735E" points="141.572,188.736 141.688,188.586 141.688,189.203 141.572,189.053 					
						"/>
					<polygon id="polygon2626_4_" fill="#555645" points="141.572,189.053 141.688,189.203 141.21,189.203 141.326,189.053 					"/>
					<polygon id="polygon2628_4_" fill="#8F8A6E" points="141.326,188.736 141.326,189.053 141.21,189.203 141.21,188.586 					"/>
					<rect id="rect2630_4_" x="141.21" y="190.52" fill="#828485" width="0.479" height="0.618"/>
					<rect id="rect2632_4_" x="141.326" y="190.67" fill="#818066" width="0.246" height="0.318"/>
					<polygon id="polygon2634_4_" fill="#ACA784" points="141.326,190.67 141.572,190.67 141.688,190.52 141.21,190.52 					"/>
					<polygon id="polygon2636_4_" fill="#76735E" points="141.572,190.67 141.688,190.52 141.688,191.138 141.572,190.988 					"/>
					<polygon id="polygon2638_4_" fill="#555645" points="141.572,190.988 141.688,191.138 141.21,191.138 141.326,190.988 					"/>
					<polygon id="polygon2640_4_" fill="#8F8A6E" points="141.326,190.67 141.326,190.988 141.21,191.138 141.21,190.52 					"/>
					<rect id="rect2642_4_" x="141.21" y="192.455" fill="#828485" width="0.479" height="0.618"/>
					<rect id="rect2644_4_" x="141.326" y="192.605" fill="#818066" width="0.246" height="0.318"/>
					<polygon id="polygon2646_4_" fill="#ACA784" points="141.326,192.605 141.572,192.605 141.688,192.455 141.21,192.455 					"/>
					<polygon id="polygon2648_4_" fill="#76735E" points="141.572,192.605 141.688,192.455 141.688,193.072 141.572,192.922 					
						"/>
					<polygon id="polygon2650_4_" fill="#555645" points="141.572,192.922 141.688,193.072 141.21,193.072 141.326,192.922 					"/>
					<polygon id="polygon2652_4_" fill="#8F8A6E" points="141.326,192.605 141.326,192.922 141.21,193.072 141.21,192.455 					"/>
					<rect id="rect2654_4_" x="141.21" y="194.389" fill="#828485" width="0.479" height="0.618"/>
					<rect id="rect2656_4_" x="141.326" y="194.539" fill="#818066" width="0.246" height="0.318"/>
					<polygon id="polygon2658_4_" fill="#ACA784" points="141.326,194.539 141.572,194.539 141.688,194.389 141.21,194.389 					"/>
					<polygon id="polygon2660_4_" fill="#76735E" points="141.572,194.539 141.688,194.389 141.688,195.007 141.572,194.857 					
						"/>
					<polygon id="polygon2662_4_" fill="#555645" points="141.572,194.857 141.688,195.007 141.21,195.007 141.326,194.857 					"/>
					<polygon id="polygon2664_4_" fill="#8F8A6E" points="141.326,194.539 141.326,194.857 141.21,195.007 141.21,194.389 					"/>
					<rect id="rect2666_4_" x="141.21" y="196.323" fill="#828485" width="0.479" height="0.618"/>
					<rect id="rect2668_4_" x="141.326" y="196.474" fill="#818066" width="0.246" height="0.318"/>
					<polygon id="polygon2670_4_" fill="#ACA784" points="141.326,196.474 141.572,196.474 141.688,196.323 141.21,196.323 					"/>
					<polygon id="polygon2672_4_" fill="#76735E" points="141.572,196.474 141.688,196.323 141.688,196.941 141.572,196.791 					
						"/>
					<polygon id="polygon2674_4_" fill="#555645" points="141.572,196.791 141.688,196.941 141.21,196.941 141.326,196.791 					"/>
					<polygon id="polygon2676_4_" fill="#8F8A6E" points="141.326,196.474 141.326,196.791 141.21,196.941 141.21,196.323 					"/>
					<rect id="rect2678_2_" x="141.21" y="198.258" fill="#828485" width="0.479" height="0.618"/>
					<rect id="rect2680_2_" x="141.326" y="198.408" fill="#818066" width="0.246" height="0.318"/>
					<polygon id="polygon2682_2_" fill="#ACA784" points="141.326,198.408 141.572,198.408 141.688,198.258 141.21,198.258 					"/>
					<polygon id="polygon2684_2_" fill="#76735E" points="141.572,198.408 141.688,198.258 141.688,198.876 141.572,198.726 					
						"/>
					<polygon id="polygon2686_2_" fill="#555645" points="141.572,198.726 141.688,198.876 141.21,198.876 141.326,198.726 					"/>
					<polygon id="polygon2688_2_" fill="#8F8A6E" points="141.326,198.408 141.326,198.726 141.21,198.876 141.21,198.258 					"/>
					<rect id="rect2690_2_" x="141.21" y="200.192" fill="#828485" width="0.479" height="0.618"/>
					<rect id="rect2692_2_" x="141.326" y="200.342" fill="#818066" width="0.246" height="0.318"/>
					<polygon id="polygon2694_2_" fill="#ACA784" points="141.326,200.342 141.572,200.342 141.688,200.192 141.21,200.192 					"/>
					<polygon id="polygon2696_2_" fill="#76735E" points="141.572,200.342 141.688,200.192 141.688,200.81 141.572,200.66 					"/>
					<polygon id="polygon2698_2_" fill="#555645" points="141.572,200.66 141.688,200.81 141.21,200.81 141.326,200.66 					"/>
					<polygon id="polygon2700_2_" fill="#8F8A6E" points="141.326,200.342 141.326,200.66 141.21,200.81 141.21,200.192 					"/>
					<rect id="rect2702_2_" x="141.21" y="202.127" fill="#828485" width="0.479" height="0.618"/>
					<rect id="rect2704_2_" x="141.326" y="202.277" fill="#818066" width="0.246" height="0.318"/>
					<polygon id="polygon2706_2_" fill="#ACA784" points="141.326,202.277 141.572,202.277 141.688,202.127 141.21,202.127 					"/>
					<polygon id="polygon2708_2_" fill="#76735E" points="141.572,202.277 141.688,202.127 141.688,202.745 141.572,202.594 					
						"/>
					<polygon id="polygon2710_2_" fill="#555645" points="141.572,202.594 141.688,202.745 141.21,202.745 141.326,202.594 					"/>
					<polygon id="polygon2712_2_" fill="#8F8A6E" points="141.326,202.277 141.326,202.594 141.21,202.745 141.21,202.127 					"/>
				</g>
			</g>
		</g>
	</g>
</g>
<g id="g2449_3_" transform="matrix(3.3579302,0,0,3.3579302,126.17271,68.361752)">
	<g id="g2451_3_">
		<g id="breadboard_3_">
			<g id="g2468_3_">
				<g id="g2470_3_">
					<rect id="rect2472_3_" x="127.706" y="204.013" fill="#828485" width="0.479" height="0.618"/>
					<rect id="rect2474_3_" x="127.823" y="204.163" fill="#818066" width="0.246" height="0.318"/>
					<polygon id="polygon2476_3_" fill="#ACA784" points="127.823,204.163 128.069,204.163 128.185,204.013 127.706,204.013 					
						"/>
					<polygon id="polygon2478_3_" fill="#76735E" points="128.069,204.163 128.185,204.013 128.185,204.63 128.069,204.48 					"/>
					<polyline id="polygon2480_4_" fill="#555645" points="128.185,204.63 127.706,204.63 127.823,204.48 					"/>
					<polyline id="polygon2482_4_" fill="#8F8A6E" points="127.706,204.63 127.706,204.013 127.823,204.163 					"/>
					<rect id="rect2484_3_" x="127.706" y="205.947" fill="#828485" width="0.479" height="0.618"/>
					<rect id="rect2486_3_" x="127.823" y="206.097" fill="#818066" width="0.246" height="0.318"/>
					<polygon id="polygon2488_3_" fill="#ACA784" points="127.823,206.097 128.069,206.097 128.185,205.947 127.706,205.947 					
						"/>
					<polygon id="polygon2490_3_" fill="#76735E" points="128.069,206.097 128.185,205.947 128.185,206.565 128.069,206.415 					
						"/>
					<polygon id="polygon2492_3_" fill="#555645" points="128.069,206.415 128.185,206.565 127.706,206.565 127.823,206.415 					
						"/>
					<polygon id="polygon2494_3_" fill="#8F8A6E" points="127.823,206.097 127.823,206.415 127.706,206.565 127.706,205.947 					
						"/>
					<rect id="rect2496_3_" x="127.706" y="207.882" fill="#828485" width="0.479" height="0.618"/>
					<rect id="rect2498_3_" x="127.823" y="208.032" fill="#818066" width="0.246" height="0.318"/>
					<polygon id="polygon2500_3_" fill="#ACA784" points="127.823,208.032 128.069,208.032 128.185,207.882 127.706,207.882 					
						"/>
					<polygon id="polygon2502_3_" fill="#76735E" points="128.069,208.032 128.185,207.882 128.185,208.499 128.069,208.349 					
						"/>
					<polygon id="polygon2504_3_" fill="#555645" points="128.069,208.349 128.185,208.499 127.706,208.499 127.823,208.349 					
						"/>
					<polygon id="polygon2506_3_" fill="#8F8A6E" points="127.823,208.032 127.823,208.349 127.706,208.499 127.706,207.882 					
						"/>
					<rect id="rect2508_3_" x="127.706" y="209.816" fill="#828485" width="0.479" height="0.618"/>
					<rect id="rect2510_3_" x="127.823" y="209.966" fill="#818066" width="0.246" height="0.318"/>
					<polygon id="polygon2512_3_" fill="#ACA784" points="127.823,209.966 128.069,209.966 128.185,209.816 127.706,209.816 					
						"/>
					<polygon id="polygon2514_3_" fill="#76735E" points="128.069,209.966 128.185,209.816 128.185,210.434 128.069,210.284 					
						"/>
					<polygon id="polygon2516_3_" fill="#555645" points="128.069,210.284 128.185,210.434 127.706,210.434 127.823,210.284 					
						"/>
					<polygon id="polygon2518_3_" fill="#8F8A6E" points="127.823,209.966 127.823,210.284 127.706,210.434 127.706,209.816 					
						"/>
					<rect id="rect2520_3_" x="127.706" y="211.751" fill="#828485" width="0.479" height="0.618"/>
					<rect id="rect2522_3_" x="127.823" y="211.901" fill="#818066" width="0.246" height="0.318"/>
					<polygon id="polygon2524_3_" fill="#ACA784" points="127.823,211.901 128.069,211.901 128.185,211.751 127.706,211.751 					
						"/>
					<polygon id="polygon2526_3_" fill="#76735E" points="128.069,211.901 128.185,211.751 128.185,212.368 128.069,212.218 					
						"/>
					<polygon id="polygon2528_3_" fill="#555645" points="128.069,212.218 128.185,212.368 127.706,212.368 127.823,212.218 					
						"/>
					<polygon id="polygon2530_3_" fill="#8F8A6E" points="127.823,211.901 127.823,212.218 127.706,212.368 127.706,211.751 					
						"/>
					<rect id="rect2532_3_" x="127.706" y="213.685" fill="#828485" width="0.479" height="0.618"/>
					<rect id="rect2534_3_" x="127.823" y="213.835" fill="#818066" width="0.246" height="0.318"/>
					<polygon id="polygon2536_3_" fill="#ACA784" points="127.823,213.835 128.069,213.835 128.185,213.685 127.706,213.685 					
						"/>
					<polygon id="polygon2538_3_" fill="#76735E" points="128.069,213.835 128.185,213.685 128.185,214.303 128.069,214.153 					
						"/>
					<polygon id="polygon2540_3_" fill="#555645" points="128.069,214.153 128.185,214.303 127.706,214.303 127.823,214.153 					
						"/>
					<polygon id="polygon2542_3_" fill="#8F8A6E" points="127.823,213.835 127.823,214.153 127.706,214.303 127.706,213.685 					
						"/>
					<rect id="rect2544_3_" x="127.706" y="215.619" fill="#828485" width="0.479" height="0.618"/>
					<rect id="rect2546_3_" x="127.823" y="215.769" fill="#818066" width="0.246" height="0.318"/>
					<polygon id="polygon2548_3_" fill="#ACA784" points="127.823,215.769 128.069,215.769 128.185,215.619 127.706,215.619 					
						"/>
					<polygon id="polygon2550_3_" fill="#76735E" points="128.069,215.769 128.185,215.619 128.185,216.237 128.069,216.087 					
						"/>
					<polygon id="polygon2552_3_" fill="#555645" points="128.069,216.087 128.185,216.237 127.706,216.237 127.823,216.087 					
						"/>
					<polygon id="polygon2554_3_" fill="#8F8A6E" points="127.823,215.769 127.823,216.087 127.706,216.237 127.706,215.619 					
						"/>
				</g>
				<g id="g2592_3_">
					<rect id="rect2594_3_" x="141.21" y="204.013" fill="#828485" width="0.479" height="0.618"/>
					<rect id="rect2596_3_" x="141.326" y="204.163" fill="#818066" width="0.246" height="0.318"/>
					<polygon id="polygon2598_3_" fill="#ACA784" points="141.326,204.163 141.572,204.163 141.688,204.013 141.21,204.013 					"/>
					<polygon id="polygon2600_3_" fill="#76735E" points="141.572,204.163 141.688,204.013 141.688,204.63 141.572,204.48 					"/>
					<polygon id="polygon2602_3_" fill="#555645" points="141.572,204.48 141.688,204.63 141.21,204.63 141.326,204.48 					"/>
					<polygon id="polygon2604_3_" fill="#8F8A6E" points="141.326,204.163 141.326,204.48 141.21,204.63 141.21,204.013 					"/>
					<rect id="rect2606_3_" x="141.21" y="205.947" fill="#828485" width="0.479" height="0.618"/>
					<rect id="rect2608_3_" x="141.326" y="206.097" fill="#818066" width="0.246" height="0.318"/>
					<polygon id="polygon2610_3_" fill="#ACA784" points="141.326,206.097 141.572,206.097 141.688,205.947 141.21,205.947 					"/>
					<polygon id="polygon2612_3_" fill="#76735E" points="141.572,206.097 141.688,205.947 141.688,206.565 141.572,206.415 					
						"/>
					<polygon id="polygon2614_3_" fill="#555645" points="141.572,206.415 141.688,206.565 141.21,206.565 141.326,206.415 					"/>
					<polygon id="polygon2616_3_" fill="#8F8A6E" points="141.326,206.097 141.326,206.415 141.21,206.565 141.21,205.947 					"/>
					<rect id="rect2618_3_" x="141.21" y="207.882" fill="#828485" width="0.479" height="0.618"/>
					<rect id="rect2620_3_" x="141.326" y="208.032" fill="#818066" width="0.246" height="0.318"/>
					<polygon id="polygon2622_3_" fill="#ACA784" points="141.326,208.032 141.572,208.032 141.688,207.882 141.21,207.882 					"/>
					<polygon id="polygon2624_3_" fill="#76735E" points="141.572,208.032 141.688,207.882 141.688,208.499 141.572,208.349 					
						"/>
					<polygon id="polygon2626_3_" fill="#555645" points="141.572,208.349 141.688,208.499 141.21,208.499 141.326,208.349 					"/>
					<polygon id="polygon2628_3_" fill="#8F8A6E" points="141.326,208.032 141.326,208.349 141.21,208.499 141.21,207.882 					"/>
					<rect id="rect2630_3_" x="141.21" y="209.816" fill="#828485" width="0.479" height="0.618"/>
					<rect id="rect2632_3_" x="141.326" y="209.966" fill="#818066" width="0.246" height="0.318"/>
					<polygon id="polygon2634_3_" fill="#ACA784" points="141.326,209.966 141.572,209.966 141.688,209.816 141.21,209.816 					"/>
					<polygon id="polygon2636_3_" fill="#76735E" points="141.572,209.966 141.688,209.816 141.688,210.434 141.572,210.284 					
						"/>
					<polygon id="polygon2638_3_" fill="#555645" points="141.572,210.284 141.688,210.434 141.21,210.434 141.326,210.284 					"/>
					<polygon id="polygon2640_3_" fill="#8F8A6E" points="141.326,209.966 141.326,210.284 141.21,210.434 141.21,209.816 					"/>
					<rect id="rect2642_3_" x="141.21" y="211.751" fill="#828485" width="0.479" height="0.618"/>
					<rect id="rect2644_3_" x="141.326" y="211.901" fill="#818066" width="0.246" height="0.318"/>
					<polygon id="polygon2646_3_" fill="#ACA784" points="141.326,211.901 141.572,211.901 141.688,211.751 141.21,211.751 					"/>
					<polygon id="polygon2648_3_" fill="#76735E" points="141.572,211.901 141.688,211.751 141.688,212.368 141.572,212.218 					
						"/>
					<polygon id="polygon2650_3_" fill="#555645" points="141.572,212.218 141.688,212.368 141.21,212.368 141.326,212.218 					"/>
					<polygon id="polygon2652_3_" fill="#8F8A6E" points="141.326,211.901 141.326,212.218 141.21,212.368 141.21,211.751 					"/>
					<rect id="rect2654_3_" x="141.21" y="213.685" fill="#828485" width="0.479" height="0.618"/>
					<rect id="rect2656_3_" x="141.326" y="213.835" fill="#818066" width="0.246" height="0.318"/>
					<polygon id="polygon2658_3_" fill="#ACA784" points="141.326,213.835 141.572,213.835 141.688,213.685 141.21,213.685 					"/>
					<polygon id="polygon2660_3_" fill="#76735E" points="141.572,213.835 141.688,213.685 141.688,214.303 141.572,214.153 					
						"/>
					<polygon id="polygon2662_3_" fill="#555645" points="141.572,214.153 141.688,214.303 141.21,214.303 141.326,214.153 					"/>
					<polygon id="polygon2664_3_" fill="#8F8A6E" points="141.326,213.835 141.326,214.153 141.21,214.303 141.21,213.685 					"/>
					<rect id="rect2666_3_" x="141.21" y="215.619" fill="#828485" width="0.479" height="0.618"/>
					<rect id="rect2668_3_" x="141.326" y="215.769" fill="#818066" width="0.246" height="0.318"/>
					<polygon id="polygon2670_3_" fill="#ACA784" points="141.326,215.769 141.572,215.769 141.688,215.619 141.21,215.619 					"/>
					<polygon id="polygon2672_3_" fill="#76735E" points="141.572,215.769 141.688,215.619 141.688,216.237 141.572,216.087 					
						"/>
					<polygon id="polygon2674_3_" fill="#555645" points="141.572,216.087 141.688,216.237 141.21,216.237 141.326,216.087 					"/>
					<polygon id="polygon2676_3_" fill="#8F8A6E" points="141.326,215.769 141.326,216.087 141.21,216.237 141.21,215.619 					"/>
				</g>
			</g>
		</g>
	</g>
</g>
<rect x="641.982" y="651.535" fill="none" width="227.831" height="19.587"/>
<text transform="matrix(1 0 0 1 641.9817 662.2031)" font-family="'Roboto-Regular'" font-size="14">Boîtier électronique (composants)</text>
<path d="M735.057,753.305H708.38c-3.745,0-6.782-3.036-6.782-6.782v-30.826c0-3.745,3.036-6.782,6.782-6.782h26.677
	c3.745,0,6.782,3.036,6.782,6.782v30.826C741.839,750.269,738.803,753.305,735.057,753.305z"/>
<circle fill="#134E92" cx="848.061" cy="717.608" r="5.334"/>
<circle cx="848.061" cy="762.915" r="5.334"/>
<circle fill="#009A9B" cx="848.061" cy="739.294" r="5.334"/>
<path fill="#FDAE53" d="M735.057,722.48H708.38c-3.745,0-6.782-3.036-6.782-6.782v0c0-3.745,3.036-6.782,6.782-6.782h26.677
	c3.745,0,6.782,3.036,6.782,6.782v0C741.839,719.443,738.803,722.48,735.057,722.48z"/>
<rect x="701.599" y="715.845" fill="#FDAE53" width="40.24" height="7.469"/>
<g>
	<g id="g8_2_" transform="translate(0,10)">
		<g id="text10_2_">
			<path id="path3075_2_" fill="none" stroke="#000000" stroke-miterlimit="10" d="M735.506,708.193v-1.32h-1.31v-0.552h1.31v-1.31
				h0.558v1.31h1.31v0.552h-1.31v1.32H735.506z"/>
		</g>
	</g>
	<g id="g8-1_2_" transform="translate(-365.79452,0.52773446)">
		<g id="text12-4_2_">
		</g>
		<g id="text10-7_2_" transform="scale(1.5645974,0.63914206)">
			<path id="path3078_2_" fill="none" stroke="#000000" stroke-miterlimit="10" d="M698.592,1120.72v-0.702h2.144v0.702H698.592z"/>
		</g>
	</g>
</g>
<rect x="857.099" y="734.523" fill="none" width="69.75" height="11.541"/>
<text transform="matrix(1 0 0 1 860.2913 742.1434)" font-family="'Roboto-Regular'" font-size="10">Arduino Micro</text>
<text transform="matrix(1 0 0 1 858.1141 720.8438)" font-family="'Roboto-Regular'" font-size="10">BlueFruit BLE</text>
<text transform="matrix(1 0 0 1 860.1654 766.1868)" font-family="'Roboto-Regular'" font-size="10">Batterie Litium (5V)</text>
<text transform="matrix(1 0 0 1 942.4275 403.7932)"><tspan x="0" y="0" font-family="'Roboto-Regular'" font-size="14">Se</tspan><tspan x="16.133" y="0" font-family="'Roboto-Regular'" font-size="14">r</tspan><tspan x="21.043" y="0" font-family="'Roboto-Regular'" font-size="14">v</tspan><tspan x="28" y="0" font-family="'Roboto-Regular'" font-size="14">eur</tspan></text>
<text transform="matrix(1 0 0 1 1252.5554 342.8811)"><tspan x="0" y="0" font-family="'Roboto-Regular'" font-size="14">Ordinateur professionnel </tspan><tspan x="0" y="16.8" font-family="'Roboto-Regular'" font-size="14">de santé</tspan></text>
<g>
	<defs>
		<rect id="SVGID_1_" x="839.527" y="95.469" width="551.035" height="526.646"/>
	</defs>
	<clipPath id="SVGID_2_">
		<use xlink:href="#SVGID_1_"  overflow="visible"/>
	</clipPath>
	<path clip-path="url(#SVGID_2_)" fill="#010101" d="M1224.803,227.925l-0.838-1.679h4.603l0.974,1.679H1224.803z M1221.811,221.937
		h4.262l0.976,1.68h-4.4L1221.811,221.937z M1215.75,227.925l-0.658-1.679h4.685l0.791,1.679H1215.75z M1213.4,221.937h4.341
		l0.794,1.68h-4.477L1213.4,221.937z M1211.653,217.487h3.988l0.793,1.681h-4.123L1211.653,217.487z M1206.704,227.925l-0.479-1.679
		h4.751l0.611,1.679H1206.704z M1204.995,221.937h4.408l0.611,1.68h-4.541L1204.995,221.937z M1203.728,217.487h4.056l0.613,1.681
		h-4.191L1203.728,217.487z M1197.666,227.925l-0.299-1.679h4.8l0.43,1.679H1197.666z M1188.635,227.925l-0.119-1.679h4.831
		l0.252,1.679H1188.635z M1188.217,221.937h8.384l-0.788-4.45h4.101l1.61,6.13h-13.19L1188.217,221.937z M1187.901,217.487h4.134
		l0.251,1.681h-4.264L1187.901,217.487z M1143.642,227.925l0.782-1.679h40.097l0.072,1.679H1143.642z M1141.541,223.617h-4.401
		l0.963-1.68h4.267L1141.541,223.617z M1139.412,227.925h-4.744l0.963-1.679h4.611L1139.412,227.925z M1132.943,223.617h-4.309
		l1.144-1.68h4.175L1132.943,223.617z M1130.351,227.925h-4.652l1.144-1.679h4.518L1130.351,227.925z M1124.338,223.617h-4.204
		l1.324-1.68h4.072L1124.338,223.617z M1121.285,227.925h-4.547l1.324-1.679h4.412L1121.285,227.925z M1124.964,217.487h3.716
		l-1.19,1.681h-3.85L1124.964,217.487z M1132.807,217.487h3.82l-1.011,1.681h-3.955L1132.807,217.487z M1140.655,217.487h3.914
		l-0.83,1.681h-4.048L1140.655,217.487z M1146.433,221.937h4.346l-0.648,1.68h-4.482L1146.433,221.937z M1148.507,217.487h3.994
		l-0.65,1.681h-4.126L1148.507,217.487z M1154.771,221.937h4.411l-0.468,1.68h-4.545L1154.771,221.937z M1156.37,217.487h4.058
		l-0.47,1.681h-4.19L1156.37,217.487z M1163.12,221.937h4.458l-0.29,1.68h-4.592L1163.12,221.937z M1164.24,217.487h4.105
		l-0.29,1.681h-4.237L1164.24,217.487z M1171.475,221.937h4.487l-0.111,1.68h-4.618L1171.475,221.937z M1172.118,217.487h4.132
		l-0.108,1.681h-4.268L1172.118,217.487z M1179.839,221.937h4.495l0.074,1.68h-4.63L1179.839,221.937z M1180.002,217.487h4.144
		l0.072,1.681h-4.276L1180.002,217.487z M1223.495,217.487l0.976,1.681h-4.042l-0.841-1.681H1223.495z M1226.743,216.06
		c-0.319-0.456-0.841-0.729-1.399-0.729h-102.716c-0.505,0-0.983,0.223-1.308,0.608l-10.263,12.182
		c-0.429,0.511-0.524,1.222-0.244,1.825c0.282,0.603,0.886,0.989,1.552,0.989h121.531c0.64,0,1.223-0.356,1.52-0.922
		c0.294-0.568,0.249-1.251-0.119-1.773L1226.743,216.06z"/>
	<path clip-path="url(#SVGID_2_)" fill="#010101" d="M1150.566,209.973c-1.646,1.646,0.941,2.587,0.941,2.587h21.324h0.076h0.076
		h21.323c0,0,2.586-0.941,0.941-2.587c-1.648-1.646-6.117-2.823-6.584-9.878c-0.036-0.553-0.015-2.766-0.008-5.644h-31.499
		c0.007,2.878,0.03,5.091-0.006,5.644C1156.68,207.15,1152.211,208.327,1150.566,209.973"/>
	<path clip-path="url(#SVGID_2_)" fill="#010101" d="M1233.581,171.64h-120.644v-68.671h120.644V171.64z M1173.964,189.277
		c-2.273,0-4.116-1.841-4.116-4.115c0-2.273,1.843-4.115,4.116-4.115c2.273,0,4.116,1.842,4.116,4.115
		C1178.08,187.436,1176.237,189.277,1173.964,189.277 M1235.407,95.47h-124.554c-2.978,0-5.415,2.437-5.415,5.415v86.54
		c0,2.978,2.437,5.415,5.415,5.415h124.554c2.978,0,5.415-2.437,5.415-5.415v-86.54C1240.822,97.907,1238.385,95.47,1235.407,95.47"
		/>
	<path clip-path="url(#SVGID_2_)" fill="#010101" d="M1224.803,426.35l-0.838-1.679h4.603l0.974,1.679H1224.803z M1221.811,420.362
		h4.262l0.976,1.68h-4.4L1221.811,420.362z M1215.75,426.35l-0.658-1.679h4.685l0.791,1.679H1215.75z M1213.4,420.362h4.341
		l0.794,1.68h-4.477L1213.4,420.362z M1211.653,415.912h3.988l0.793,1.681h-4.123L1211.653,415.912z M1206.704,426.35l-0.479-1.679
		h4.751l0.611,1.679H1206.704z M1204.995,420.362h4.408l0.611,1.68h-4.541L1204.995,420.362z M1203.728,415.912h4.056l0.613,1.681
		h-4.191L1203.728,415.912z M1197.666,426.35l-0.299-1.679h4.8l0.43,1.679H1197.666z M1188.635,426.35l-0.119-1.679h4.831
		l0.252,1.679H1188.635z M1188.217,420.362h8.384l-0.788-4.45h4.101l1.61,6.13h-13.19L1188.217,420.362z M1187.901,415.912h4.134
		l0.251,1.681h-4.264L1187.901,415.912z M1143.642,426.35l0.782-1.679h40.097l0.072,1.679H1143.642z M1141.541,422.042h-4.401
		l0.963-1.68h4.267L1141.541,422.042z M1139.412,426.35h-4.744l0.963-1.679h4.611L1139.412,426.35z M1132.943,422.042h-4.309
		l1.144-1.68h4.175L1132.943,422.042z M1130.351,426.35h-4.652l1.144-1.679h4.518L1130.351,426.35z M1124.338,422.042h-4.204
		l1.324-1.68h4.072L1124.338,422.042z M1121.285,426.35h-4.547l1.324-1.679h4.412L1121.285,426.35z M1124.964,415.912h3.716
		l-1.19,1.681h-3.85L1124.964,415.912z M1132.807,415.912h3.82l-1.011,1.681h-3.955L1132.807,415.912z M1140.655,415.912h3.914
		l-0.83,1.681h-4.048L1140.655,415.912z M1146.433,420.362h4.346l-0.648,1.68h-4.482L1146.433,420.362z M1148.507,415.912h3.994
		l-0.65,1.681h-4.126L1148.507,415.912z M1154.771,420.362h4.411l-0.468,1.68h-4.545L1154.771,420.362z M1156.37,415.912h4.058
		l-0.47,1.681h-4.19L1156.37,415.912z M1163.12,420.362h4.458l-0.29,1.68h-4.592L1163.12,420.362z M1164.24,415.912h4.105
		l-0.29,1.681h-4.237L1164.24,415.912z M1171.475,420.362h4.487l-0.111,1.68h-4.618L1171.475,420.362z M1172.118,415.912h4.132
		l-0.108,1.681h-4.268L1172.118,415.912z M1179.839,420.362h4.495l0.074,1.68h-4.63L1179.839,420.362z M1180.002,415.912h4.144
		l0.072,1.681h-4.276L1180.002,415.912z M1223.495,415.912l0.976,1.681h-4.042l-0.841-1.681H1223.495z M1226.743,414.485
		c-0.319-0.456-0.841-0.729-1.399-0.729h-102.716c-0.505,0-0.983,0.223-1.308,0.608l-10.263,12.182
		c-0.429,0.511-0.524,1.222-0.244,1.825c0.282,0.603,0.886,0.989,1.552,0.989h121.531c0.64,0,1.223-0.356,1.52-0.922
		c0.294-0.568,0.249-1.251-0.119-1.773L1226.743,414.485z"/>
	<path clip-path="url(#SVGID_2_)" fill="#010101" d="M1150.566,408.398c-1.646,1.646,0.941,2.587,0.941,2.587h21.324h0.076h0.076
		h21.323c0,0,2.586-0.941,0.941-2.587c-1.648-1.646-6.117-2.823-6.584-9.878c-0.036-0.553-0.015-2.766-0.008-5.644h-31.499
		c0.007,2.878,0.03,5.091-0.006,5.644C1156.68,405.575,1152.211,406.752,1150.566,408.398"/>
	<path clip-path="url(#SVGID_2_)" fill="#010101" d="M1233.581,370.065h-120.644v-68.671h120.644V370.065z M1173.964,387.702
		c-2.273,0-4.116-1.842-4.116-4.115c0-2.273,1.843-4.115,4.116-4.115c2.273,0,4.116,1.842,4.116,4.115
		C1178.08,385.86,1176.237,387.702,1173.964,387.702 M1235.407,293.895h-124.554c-2.978,0-5.415,2.437-5.415,5.415v86.54
		c0,2.978,2.437,5.415,5.415,5.415h124.554c2.978,0,5.415-2.437,5.415-5.415v-86.54
		C1240.822,296.332,1238.385,293.895,1235.407,293.895"/>
	<path clip-path="url(#SVGID_2_)" fill="#010101" d="M1224.803,619.106l-0.838-1.679h4.603l0.974,1.679H1224.803z M1221.811,613.118
		h4.262l0.976,1.68h-4.4L1221.811,613.118z M1215.75,619.106l-0.658-1.679h4.685l0.791,1.679H1215.75z M1213.4,613.118h4.341
		l0.794,1.68h-4.477L1213.4,613.118z M1211.653,608.668h3.988l0.793,1.681h-4.123L1211.653,608.668z M1206.704,619.106l-0.479-1.679
		h4.751l0.611,1.679H1206.704z M1204.995,613.118h4.408l0.611,1.68h-4.541L1204.995,613.118z M1203.728,608.668h4.056l0.613,1.681
		h-4.191L1203.728,608.668z M1197.666,619.106l-0.299-1.679h4.8l0.43,1.679H1197.666z M1188.635,619.106l-0.119-1.679h4.831
		l0.252,1.679H1188.635z M1188.217,613.118h8.384l-0.788-4.45h4.101l1.61,6.13h-13.19L1188.217,613.118z M1187.901,608.668h4.134
		l0.251,1.681h-4.264L1187.901,608.668z M1143.642,619.106l0.782-1.679h40.097l0.072,1.679H1143.642z M1141.541,614.798h-4.401
		l0.963-1.68h4.267L1141.541,614.798z M1139.412,619.106h-4.744l0.963-1.679h4.611L1139.412,619.106z M1132.943,614.798h-4.309
		l1.144-1.68h4.175L1132.943,614.798z M1130.351,619.106h-4.652l1.144-1.679h4.518L1130.351,619.106z M1124.338,614.798h-4.204
		l1.324-1.68h4.072L1124.338,614.798z M1121.285,619.106h-4.547l1.324-1.679h4.412L1121.285,619.106z M1124.964,608.668h3.716
		l-1.19,1.681h-3.85L1124.964,608.668z M1132.807,608.668h3.82l-1.011,1.681h-3.955L1132.807,608.668z M1140.655,608.668h3.914
		l-0.83,1.681h-4.048L1140.655,608.668z M1146.433,613.118h4.346l-0.648,1.68h-4.482L1146.433,613.118z M1148.507,608.668h3.994
		l-0.65,1.681h-4.126L1148.507,608.668z M1154.771,613.118h4.411l-0.468,1.68h-4.545L1154.771,613.118z M1156.37,608.668h4.058
		l-0.47,1.681h-4.19L1156.37,608.668z M1163.12,613.118h4.458l-0.29,1.68h-4.592L1163.12,613.118z M1164.24,608.668h4.105
		l-0.29,1.681h-4.237L1164.24,608.668z M1171.475,613.118h4.487l-0.111,1.68h-4.618L1171.475,613.118z M1172.118,608.668h4.132
		l-0.108,1.681h-4.268L1172.118,608.668z M1179.839,613.118h4.495l0.074,1.68h-4.63L1179.839,613.118z M1180.002,608.668h4.144
		l0.072,1.681h-4.276L1180.002,608.668z M1223.495,608.668l0.976,1.681h-4.042l-0.841-1.681H1223.495z M1226.743,607.241
		c-0.319-0.456-0.841-0.729-1.399-0.729h-102.716c-0.505,0-0.983,0.223-1.308,0.608l-10.263,12.182
		c-0.429,0.511-0.524,1.222-0.244,1.825c0.282,0.603,0.886,0.989,1.552,0.989h121.531c0.64,0,1.223-0.356,1.52-0.922
		c0.294-0.568,0.249-1.251-0.119-1.773L1226.743,607.241z"/>
	<path clip-path="url(#SVGID_2_)" fill="#010101" d="M1150.566,601.154c-1.646,1.646,0.941,2.587,0.941,2.587h21.324h0.076h0.076
		h21.323c0,0,2.586-0.941,0.941-2.587c-1.648-1.646-6.117-2.823-6.584-9.878c-0.036-0.553-0.015-2.766-0.008-5.644h-31.499
		c0.007,2.878,0.03,5.091-0.006,5.644C1156.68,598.331,1152.211,599.508,1150.566,601.154"/>
	<path clip-path="url(#SVGID_2_)" fill="#010101" d="M1233.581,562.821h-120.644V494.15h120.644V562.821z M1173.964,580.458
		c-2.273,0-4.116-1.842-4.116-4.115s1.843-4.115,4.116-4.115c2.273,0,4.116,1.842,4.116,4.115S1176.237,580.458,1173.964,580.458
		 M1235.407,486.651h-124.554c-2.978,0-5.415,2.437-5.415,5.415v86.54c0,2.978,2.437,5.415,5.415,5.415h124.554
		c2.978,0,5.415-2.437,5.415-5.415v-86.54C1240.822,489.088,1238.385,486.651,1235.407,486.651"/>
</g>
<text transform="matrix(1 0 0 1 1152.8591 161.5271)" fill="#F45C30" font-family="'VarelaRound-Regular'" font-size="6.9447">SENS</text>
<text transform="matrix(1 0 0 1 1171.7 161.5271)" fill="#EB4541" font-family="'VarelaRound-Regular'" font-size="6.9447">MO</text>
<text transform="matrix(1 0 0 1 1184.0891 161.5271)" fill="#EB4541" font-family="'VarelaRound-Regular'" font-size="6.9447">VE</text>
<g>
	<defs>
		<path id="SVGID_3_" d="M1159.716,130.814c0,0,2.105-0.475,3.751-0.076c1.647,0.401,1.674,0.438,3.625,1.787
			c0.511,0.354,2.262,2.013,2.261,2.013c-1.304-0.972-2.928-1.444-6.374-1.324c-0.064,0.003-0.126,0.004-0.187,0.004
			C1160.075,133.218,1159.716,130.814,1159.716,130.814 M1160.029,130.081c0.61-0.78,4.091-1.109,7.317-0.734
			c3.226,0.375,6.471,2.402,9.303,2.926c2.831,0.523,13.049,3.113,11.699,4.426c-1.997,1.941-14.4,0.75-16.726-0.825
			c-2.325-1.575-4.574-4.922-7.652-5.514c-1.461-0.281-2.558-0.183-3.245-0.085c-0.349,0.049-0.591,0.1-0.721,0.1
			C1159.85,130.376,1159.854,130.305,1160.029,130.081 M1153.984,132.993c0,10.694,8.669,19.363,19.363,19.363
			c10.694,0,19.362-8.669,19.362-19.363c0-10.693-8.668-19.363-19.362-19.363C1162.653,113.63,1153.984,122.299,1153.984,132.993"/>
	</defs>
	<clipPath id="SVGID_4_">
		<use xlink:href="#SVGID_3_"  overflow="visible"/>
	</clipPath>
	<g clip-path="url(#SVGID_4_)">
		<g>
			<defs>
				<rect id="SVGID_5_" x="1153.984" y="113.629" width="38.725" height="38.726"/>
			</defs>
			<clipPath id="SVGID_6_">
				<use xlink:href="#SVGID_5_"  overflow="visible"/>
			</clipPath>
			<g clip-path="url(#SVGID_6_)">
				<defs>
					<rect id="SVGID_7_" x="1153.984" y="113.629" width="38.725" height="38.726"/>
				</defs>
				<clipPath id="SVGID_8_">
					<use xlink:href="#SVGID_7_"  overflow="visible"/>
				</clipPath>
				<g clip-path="url(#SVGID_8_)">
					
						<image overflow="visible" width="162" height="162" xlink:href="DA9EEF85C1E4B3A3.jpg"  transform="matrix(0.24 0 0 0.24 1153.9836 113.6292)">
					</image>
				</g>
			</g>
		</g>
	</g>
</g>
<text transform="matrix(1 0 0 1 1152.8591 360.8489)" fill="#F45C30" font-family="'VarelaRound-Regular'" font-size="6.9447">SENS</text>
<text transform="matrix(1 0 0 1 1171.7 360.8489)" fill="#EB4541" font-family="'VarelaRound-Regular'" font-size="6.9447">MO</text>
<text transform="matrix(1 0 0 1 1184.0891 360.8489)" fill="#EB4541" font-family="'VarelaRound-Regular'" font-size="6.9447">VE</text>
<g>
	<defs>
		<path id="SVGID_9_" d="M1159.716,330.136c0,0,2.105-0.475,3.751-0.076c1.647,0.401,1.674,0.437,3.625,1.787
			c0.511,0.355,2.262,2.013,2.261,2.013c-1.304-0.972-2.928-1.444-6.374-1.324c-0.063,0.003-0.125,0.004-0.186,0.004
			C1160.075,332.54,1159.716,330.136,1159.716,330.136 M1160.029,329.404c0.61-0.782,4.091-1.11,7.317-0.735
			c3.226,0.375,6.471,2.402,9.303,2.926c2.831,0.523,13.049,3.113,11.699,4.426c-1.997,1.942-14.4,0.75-16.726-0.825
			c-2.325-1.576-4.574-4.922-7.652-5.514c-1.461-0.281-2.558-0.183-3.245-0.085c-0.349,0.049-0.591,0.1-0.721,0.1
			C1159.85,329.697,1159.854,329.627,1160.029,329.404 M1153.984,332.314c0,10.694,8.669,19.363,19.363,19.363
			c10.694,0,19.362-8.669,19.362-19.363s-8.668-19.362-19.362-19.362C1162.653,312.952,1153.984,321.62,1153.984,332.314"/>
	</defs>
	<clipPath id="SVGID_10_">
		<use xlink:href="#SVGID_9_"  overflow="visible"/>
	</clipPath>
	<g clip-path="url(#SVGID_10_)">
		<g>
			<defs>
				<rect id="SVGID_11_" x="1153.984" y="312.951" width="38.725" height="38.723"/>
			</defs>
			<clipPath id="SVGID_12_">
				<use xlink:href="#SVGID_11_"  overflow="visible"/>
			</clipPath>
			<g clip-path="url(#SVGID_12_)">
				<defs>
					<rect id="SVGID_13_" x="1153.984" y="312.951" width="38.725" height="38.723"/>
				</defs>
				<clipPath id="SVGID_14_">
					<use xlink:href="#SVGID_13_"  overflow="visible"/>
				</clipPath>
				<g clip-path="url(#SVGID_14_)">
					
						<image overflow="visible" width="162" height="162" xlink:href="DA9EEF85C1E4B3A1.jpg"  transform="matrix(0.24 0 0 0.24 1153.9836 312.9513)">
					</image>
				</g>
			</g>
		</g>
	</g>
</g>
<text transform="matrix(1 0 0 1 735.0952 357.5723)" fill="#F45C30" font-family="'VarelaRound-Regular'" font-size="6.9447">SENS</text>
<text transform="matrix(1 0 0 1 753.936 357.5723)" fill="#EB4541" font-family="'VarelaRound-Regular'" font-size="6.9447">MO</text>
<text transform="matrix(1 0 0 1 766.3252 357.5723)" fill="#EB4541" font-family="'VarelaRound-Regular'" font-size="6.9447">VE</text>
<g>
	<defs>
		<path id="SVGID_15_" d="M741.952,326.86c0,0,2.105-0.475,3.751-0.076c1.647,0.401,1.674,0.437,3.625,1.787
			c0.511,0.355,2.262,2.013,2.261,2.013c-1.304-0.972-2.928-1.444-6.374-1.324c-0.063,0.003-0.125,0.004-0.186,0.004
			C742.311,329.264,741.952,326.86,741.952,326.86 M742.265,326.128c0.61-0.782,4.091-1.11,7.317-0.735s6.471,2.402,9.303,2.926
			c2.831,0.523,13.049,3.113,11.699,4.426c-1.997,1.942-14.4,0.75-16.726-0.825c-2.325-1.576-4.574-4.922-7.652-5.514
			c-1.461-0.281-2.558-0.183-3.245-0.085c-0.349,0.049-0.591,0.1-0.721,0.1C742.086,326.421,742.09,326.351,742.265,326.128
			 M736.22,329.038c0,10.694,8.669,19.363,19.363,19.363c10.694,0,19.362-8.669,19.362-19.363s-8.668-19.362-19.362-19.362
			C744.889,309.676,736.22,318.344,736.22,329.038"/>
	</defs>
	<clipPath id="SVGID_16_">
		<use xlink:href="#SVGID_15_"  overflow="visible"/>
	</clipPath>
	<g clip-path="url(#SVGID_16_)">
		<g>
			<defs>
				<rect id="SVGID_17_" x="736.22" y="309.675" width="38.725" height="38.723"/>
			</defs>
			<clipPath id="SVGID_18_">
				<use xlink:href="#SVGID_17_"  overflow="visible"/>
			</clipPath>
			<g clip-path="url(#SVGID_18_)">
				<defs>
					<rect id="SVGID_19_" x="736.22" y="309.675" width="38.725" height="38.723"/>
				</defs>
				<clipPath id="SVGID_20_">
					<use xlink:href="#SVGID_19_"  overflow="visible"/>
				</clipPath>
				<g clip-path="url(#SVGID_20_)">
					
						<image overflow="visible" width="162" height="162" xlink:href="DA9EEF85C1E4B3A7.jpg"  transform="matrix(0.24 0 0 0.24 736.22 309.6749)">
					</image>
				</g>
			</g>
		</g>
	</g>
</g>
<text transform="matrix(1 0 0 1 1152.8591 552.1624)" fill="#F45C30" font-family="'VarelaRound-Regular'" font-size="6.9447">SENS</text>
<text transform="matrix(1 0 0 1 1171.7 552.1624)" fill="#EB4541" font-family="'VarelaRound-Regular'" font-size="6.9447">MO</text>
<text transform="matrix(1 0 0 1 1184.0891 552.1624)" fill="#EB4541" font-family="'VarelaRound-Regular'" font-size="6.9447">VE</text>
<g>
	<defs>
		<path id="SVGID_21_" d="M1159.716,521.449c0,0,2.105-0.476,3.751-0.076c1.647,0.401,1.674,0.437,3.625,1.787
			c0.511,0.355,2.262,2.013,2.261,2.013c-1.304-0.972-2.928-1.444-6.374-1.324c-0.063,0.003-0.125,0.004-0.186,0.004
			C1160.075,523.854,1159.716,521.449,1159.716,521.449 M1160.029,520.717c0.61-0.782,4.091-1.11,7.317-0.735
			c3.226,0.375,6.471,2.402,9.303,2.926c2.831,0.523,13.049,3.113,11.699,4.426c-1.997,1.941-14.4,0.75-16.726-0.825
			c-2.325-1.576-4.574-4.922-7.652-5.514c-1.461-0.281-2.558-0.183-3.245-0.085c-0.349,0.049-0.591,0.1-0.721,0.1
			C1159.85,521.01,1159.854,520.94,1160.029,520.717 M1153.984,523.628c0,10.694,8.669,19.363,19.363,19.363
			c10.694,0,19.362-8.669,19.362-19.363c0-10.694-8.668-19.363-19.362-19.363C1162.653,504.264,1153.984,512.933,1153.984,523.628"
			/>
	</defs>
	<clipPath id="SVGID_22_">
		<use xlink:href="#SVGID_21_"  overflow="visible"/>
	</clipPath>
	<g clip-path="url(#SVGID_22_)">
		<g>
			<defs>
				<rect id="SVGID_23_" x="1153.984" y="504.264" width="38.725" height="38.726"/>
			</defs>
			<clipPath id="SVGID_24_">
				<use xlink:href="#SVGID_23_"  overflow="visible"/>
			</clipPath>
			<g clip-path="url(#SVGID_24_)">
				<defs>
					<rect id="SVGID_25_" x="1153.984" y="504.264" width="38.725" height="38.726"/>
				</defs>
				<clipPath id="SVGID_26_">
					<use xlink:href="#SVGID_25_"  overflow="visible"/>
				</clipPath>
				<g clip-path="url(#SVGID_26_)">
					
						<image overflow="visible" width="162" height="162" xlink:href="DA9EEF85C1E4B3A0.jpg"  transform="matrix(0.24 0 0 0.24 1153.9836 504.2643)">
					</image>
				</g>
			</g>
		</g>
	</g>
</g>
<g>
	<defs>
		<rect id="SVGID_27_" x="839.527" y="95.469" width="551.035" height="526.646"/>
	</defs>
	<clipPath id="SVGID_28_">
		<use xlink:href="#SVGID_27_"  overflow="visible"/>
	</clipPath>
	<path clip-path="url(#SVGID_28_)" fill="#010101" d="M963.07,299.564c-20.3,0-36.757,2.408-36.757,5.378v16.396
		c0,2.97,16.457,5.378,36.757,5.378c20.299,0,36.757-2.408,36.757-5.378v-16.396C999.827,301.972,983.369,299.564,963.07,299.564"/>
	<path clip-path="url(#SVGID_28_)" fill="#010101" d="M963.07,334.205c-20.3,0-36.757-2.409-36.757-5.378v16.395
		c0,2.97,16.457,5.379,36.757,5.379c20.299,0,36.757-2.409,36.757-5.379v-16.395C999.827,331.796,983.369,334.205,963.07,334.205"/>
	<path clip-path="url(#SVGID_28_)" fill="#010101" d="M963.07,358.086c-20.3,0-36.757-2.409-36.757-5.38v16.396
		c0,2.972,16.457,5.379,36.757,5.379c20.299,0,36.757-2.407,36.757-5.379v-16.395C999.827,355.677,983.369,358.086,963.07,358.086"
		/>
	
		<line clip-path="url(#SVGID_28_)" fill="none" stroke="#D7D7DB" stroke-width="3.9134" stroke-linecap="round" x1="839.527" y1="338.604" x2="901.527" y2="338.604"/>
</g>
<line fill="none" stroke="#D7D7DB" stroke-width="3.9134" stroke-linecap="round" x1="1024.702" y1="338.604" x2="1086.702" y2="338.604"/>
<circle fill="#EDEDEE" cx="150.329" cy="169.275" r="15.534"/>
<path fill="#010101" d="M804.735,197.646h-95.449c-11.715,0-21.212,9.495-21.212,21.21v228.247c0,11.715,9.498,21.212,21.212,21.212
	h95.449c11.715,0,21.212-9.498,21.212-21.212V218.855C825.948,207.141,816.45,197.646,804.735,197.646z M746.579,220.152h20.863
	c1.559,0,2.823,1.264,2.823,2.826c0,1.559-1.264,2.823-2.823,2.823h-20.863c-1.562,0-2.826-1.264-2.826-2.823
	C743.754,221.416,745.018,220.152,746.579,220.152z M734.421,219.069c1.859,0,3.367,1.508,3.367,3.367s-1.508,3.367-3.367,3.367
	s-3.367-1.508-3.367-3.367S732.564,219.069,734.421,219.069z M757.011,456.871c-7.322,0-13.257-5.933-13.257-13.255
	c0-7.324,5.936-13.257,13.257-13.257s13.255,5.933,13.255,13.257C770.266,450.938,764.333,456.871,757.011,456.871z M815.34,420.918
	H698.682V245.042H815.34V420.918z"/>
</svg>
