<?xml version="1.0" encoding="utf-8"?>
<!-- Generator: Adobe Illustrator 17.0.0, SVG Export Plug-In . SVG Version: 6.00 Build 0)  -->
<!DOCTYPE svg PUBLIC "-//W3C//DTD SVG 1.1//EN" "http://www.w3.org/Graphics/SVG/1.1/DTD/svg11.dtd">
<svg version="1.1" id="Layer_1" xmlns="http://www.w3.org/2000/svg" xmlns:xlink="http://www.w3.org/1999/xlink" x="0px" y="0px"
	 width="400px" height="400px" viewBox="0 0 400 400" enable-background="new 0 0 400 400" xml:space="preserve">
<text transform="matrix(1 0 0 1 16.4157 376.8477)" fill="#FFFFFF" font-family="'VarelaRound-Regular'" font-size="61.9767" letter-spacing="1">SENSMOVE</text>
<path fill="#FFFFFF" d="M204.01,4C125.217,4,61.342,67.875,61.342,146.668s63.875,142.668,142.668,142.668
	s142.668-63.875,142.668-142.668S282.803,4,204.01,4z M127.615,148.304c-21.281,0.832-24.046-17.684-24.046-17.684
	s15.511-3.506,27.643-0.557c12.132,2.949,12.331,3.217,26.706,13.163c3.769,2.611,16.68,14.846,16.663,14.833
	C164.967,150.899,153.008,147.416,127.615,148.304z M191.301,167.899c-17.136-11.608-33.708-36.265-56.382-40.629
	c-22.716-4.372-33.532,3.704-29.039-2.05c4.493-5.754,30.145-8.176,53.914-5.412c23.769,2.764,47.679,17.702,68.543,21.558
	c20.865,3.856,96.151,22.94,86.201,32.613C299.824,188.285,208.437,179.508,191.301,167.899z"/>
</svg>
