<?xml version="1.0" encoding="utf-8"?>
<!-- Generator: Adobe Illustrator 15.1.0, SVG Export Plug-In . SVG Version: 6.00 Build 0)  -->
<!DOCTYPE svg PUBLIC "-//W3C//DTD SVG 1.1 Tiny//EN" "http://www.w3.org/Graphics/SVG/1.1/DTD/svg11-tiny.dtd">
<svg version="1.1" baseProfile="tiny" id="Layer_1" xmlns="http://www.w3.org/2000/svg" xmlns:xlink="http://www.w3.org/1999/xlink"
	 x="0px" y="0px" width="80px" height="80px" viewBox="0 0 80 80" xml:space="preserve">
<g>
	<g>
		<path fill="#333333" d="M53.799,63.182c0,1.516-1.229,2.746-2.746,2.746H29.42c-1.516,0-2.744-1.23-2.744-2.746V41.549
			c0-1.516,1.229-2.746,2.744-2.746h21.633c1.518,0,2.746,1.23,2.746,2.746V63.182z"/>
		<g>
			<path fill="#333333" d="M49.926,45.672h-4.229V35.283c0-2.914-2.371-5.285-5.285-5.285s-5.285,2.371-5.285,5.285v8.98H30.9v-8.98
				c0-5.245,4.268-9.512,9.512-9.512c5.246,0,9.514,4.267,9.514,9.512V45.672z"/>
		</g>
	</g>
</g>
</svg>
