<?xml version="1.0" encoding="utf-8"?>
<!-- Generator: Adobe Illustrator 15.1.0, SVG Export Plug-In . SVG Version: 6.00 Build 0)  -->
<!DOCTYPE svg PUBLIC "-//W3C//DTD SVG 1.1 Tiny//EN" "http://www.w3.org/Graphics/SVG/1.1/DTD/svg11-tiny.dtd">
<svg version="1.1" baseProfile="tiny" id="Layer_1" xmlns="http://www.w3.org/2000/svg" xmlns:xlink="http://www.w3.org/1999/xlink"
	 x="0px" y="0px" width="80px" height="80px" viewBox="0 0 80 80" xml:space="preserve">
<g>
	<path fill="#333333" d="M40.412,29.998c-2.914,0-5.285,2.371-5.285,5.285v3.521h10.57v-3.521
		C45.697,32.369,43.326,29.998,40.412,29.998z"/>
	<path fill="#333333" d="M58,16V4H46v12H34V4H22v12H10v60h60V16H58z M53.799,63.182c0,1.516-1.229,2.746-2.746,2.746H29.42
		c-1.516,0-2.744-1.23-2.744-2.746V41.549c0-1.516,1.229-2.746,2.744-2.746h1.48v-3.521c0-5.245,4.268-9.512,9.512-9.512
		c5.246,0,9.514,4.267,9.514,9.512v3.521h1.127c1.518,0,2.746,1.23,2.746,2.746V63.182z"/>
</g>
</svg>
