<?xml version="1.0" encoding="utf-8"?>
<!-- Generator: Adobe Illustrator 15.1.0, SVG Export Plug-In . SVG Version: 6.00 Build 0)  -->
<!DOCTYPE svg PUBLIC "-//W3C//DTD SVG 1.1 Tiny//EN" "http://www.w3.org/Graphics/SVG/1.1/DTD/svg11-tiny.dtd">
<svg version="1.1" baseProfile="tiny" id="Layer_1" xmlns="http://www.w3.org/2000/svg" xmlns:xlink="http://www.w3.org/1999/xlink"
	 x="0px" y="0px" width="80px" height="80px" viewBox="0 0 80 80" xml:space="preserve">
<g>
	<g>
		<path fill="#333333" d="M57.521,30.196H22.308c-1.753,0-3.173,1.42-3.173,3.174v24.626c0,1.754,1.42,3.175,3.173,3.175h15.214
			c-0.199,1.202-1.188,4.479-6.094,4.479v1.57h7.88h1.678h7.88v-1.57c-4.905,0-5.896-3.276-6.095-4.479h14.752
			c1.752,0,3.172-1.421,3.172-3.175V33.37C60.695,31.617,59.275,30.196,57.521,30.196z M49.764,50.285v-2.518H30.873v2.518
			l-4.699-4.699l4.699-4.701v2.52h18.891v-2.52l4.699,4.701L49.764,50.285z"/>
	</g>
</g>
</svg>
