<?xml version="1.0" encoding="utf-8"?>
<!-- Generator: Adobe Illustrator 15.1.0, SVG Export Plug-In . SVG Version: 6.00 Build 0)  -->
<!DOCTYPE svg PUBLIC "-//W3C//DTD SVG 1.1 Tiny//EN" "http://www.w3.org/Graphics/SVG/1.1/DTD/svg11-tiny.dtd">
<svg version="1.1" baseProfile="tiny" id="Layer_1" xmlns="http://www.w3.org/2000/svg" xmlns:xlink="http://www.w3.org/1999/xlink"
	 x="0px" y="0px" width="80px" height="80px" viewBox="0 0 80 80" xml:space="preserve">
<g>
	<polygon fill="#333333" points="49.764,43.404 30.873,43.404 30.873,40.885 26.174,45.586 30.873,50.285 30.873,47.768 
		49.764,47.768 49.764,50.285 54.463,45.586 49.764,40.885 	"/>
	<path fill="#333333" d="M58,16V4H46v12H34V4H22v12H10v60h60V16H58z M60.695,57.996c0,1.754-1.42,3.175-3.174,3.175h-14.75
		c0.196,1.202,1.188,4.479,6.094,4.479v1.57h-7.879h-1.679h-7.88v-1.57c4.905,0,5.895-3.276,6.094-4.479H22.308
		c-1.753,0-3.173-1.421-3.173-3.175V33.37c0-1.753,1.42-3.174,3.173-3.174h35.215c1.752,0,3.172,1.42,3.172,3.174V57.996
		L60.695,57.996z"/>
</g>
</svg>
