<?xml version="1.0" encoding="utf-8"?>
<!-- Generator: Adobe Illustrator 15.1.0, SVG Export Plug-In . SVG Version: 6.00 Build 0)  -->
<!DOCTYPE svg PUBLIC "-//W3C//DTD SVG 1.1 Tiny//EN" "http://www.w3.org/Graphics/SVG/1.1/DTD/svg11-tiny.dtd">
<svg version="1.1" baseProfile="tiny" id="Layer_1" xmlns="http://www.w3.org/2000/svg" xmlns:xlink="http://www.w3.org/1999/xlink"
	 x="0px" y="0px" width="80px" height="80px" viewBox="0 0 80 80" xml:space="preserve">
<g>
	<path fill="#333333" d="M53.461,54.467c-0.012,0.124-0.031,0.248-0.061,0.37l-0.012,0.036c-0.029,0.107-0.066,0.214-0.111,0.316
		l-0.037,0.09c-0.051,0.104-0.104,0.209-0.166,0.313l-0.018,0.024c-0.066,0.108-0.15,0.217-0.233,0.323l-0.069,0.082
		c-0.082,0.095-0.167,0.188-0.26,0.281l-0.047,0.047c-0.114,0.111-0.24,0.219-0.373,0.326L51.99,56.74
		c-0.148,0.115-0.303,0.229-0.473,0.338l-0.031,0.02c-0.207,0.135-0.432,0.268-0.67,0.394c-0.142,0.075-0.289,0.147-0.439,0.221
		l-0.154,0.07c-0.104,0.048-0.209,0.094-0.318,0.14l-0.137,0.059c-0.254,0.104-0.519,0.205-0.793,0.301l-0.111,0.037
		c-0.279,0.094-0.567,0.185-0.866,0.271l-0.11,0.029c-0.343,0.096-0.699,0.185-1.068,0.265l-0.129,0.029
		c-0.373,0.08-0.756,0.154-1.152,0.221l-0.121,0.02c-0.318,0.053-0.643,0.099-0.971,0.14l-0.172,0.021
		c-0.332,0.041-0.668,0.074-1.01,0.104l-0.16,0.014c-0.4,0.029-0.808,0.055-1.22,0.071l-0.188,0.007
		c-0.336,0.01-0.678,0.018-1.021,0.018c-0.197,0-0.396,0-0.596-0.002c-0.206-0.004-0.409-0.01-0.611-0.016
		c-0.291-0.01-0.581-0.023-0.867-0.041l-0.229-0.015c-0.222-0.017-0.441-0.032-0.659-0.052l-0.224-0.021
		c-0.272-0.023-0.539-0.052-0.803-0.084l-0.162-0.021c-0.225-0.027-0.445-0.061-0.665-0.092l-0.215-0.033
		c-0.269-0.043-0.535-0.088-0.795-0.137L34.786,59c-0.258-0.049-0.512-0.104-0.762-0.158l-0.183-0.041
		c-0.28-0.064-0.556-0.133-0.825-0.205l-0.134-0.037c-0.316-0.086-0.623-0.177-0.92-0.272l-0.188-0.063
		c-0.123-0.041-0.244-0.084-0.362-0.125L31.2,58.02c-0.117-0.043-0.231-0.088-0.344-0.135l-0.197-0.078l-0.23-0.1l-0.22-0.1
		l-0.222-0.104L29.778,57.4l-0.208-0.107l-0.197-0.104l-0.197-0.115l-0.184-0.105l-0.185-0.119l-0.169-0.109l-0.17-0.121
		l-0.158-0.114l-0.157-0.125l-0.146-0.116l-0.143-0.13l-0.132-0.118l-0.127-0.129l-0.119-0.123l-0.108-0.136l-0.105-0.127
		l-0.094-0.133l-0.09-0.13l-0.08-0.137l-0.078-0.133l-0.06-0.139l-0.059-0.137l-0.046-0.141l-0.042-0.136l-0.031-0.16l-0.023-0.12
		c-0.013-0.095-0.019-0.189-0.019-0.283l0.068,7.813c0,0.097,0.006,0.188,0.019,0.284l0.016,0.085l0.039,0.194l0.033,0.104
		l0.055,0.174l0.047,0.109l0.074,0.164l0.063,0.114l0.089,0.154l0.081,0.115l0.103,0.148l0.095,0.115l0.123,0.145l0.109,0.115
		l0.135,0.138l0.126,0.114l0.148,0.133l0.14,0.113l0.162,0.129l0.156,0.113l0.173,0.121l0.173,0.113l0.182,0.113l0.188,0.111
		l0.192,0.11l0.202,0.106l0.204,0.106l0.219,0.104l0.207,0.1l0.236,0.104l0.216,0.092l0.072,0.033l0.132,0.051
		c0.114,0.045,0.225,0.09,0.34,0.132l0.213,0.079c0.122,0.043,0.242,0.084,0.366,0.127l0.14,0.048l0.044,0.015
		c0.295,0.096,0.601,0.186,0.917,0.271l0.079,0.025l0.063,0.014c0.266,0.072,0.54,0.139,0.818,0.205l0.078,0.02l0.112,0.021
		c0.251,0.055,0.502,0.107,0.761,0.156l0.047,0.012h0.012c0.26,0.051,0.524,0.096,0.79,0.137l0.102,0.018l0.124,0.017
		c0.215,0.032,0.432,0.063,0.653,0.092l0.129,0.019l0.042,0.004c0.263,0.033,0.528,0.061,0.797,0.086l0.083,0.01l0.15,0.012
		c0.214,0.02,0.43,0.035,0.648,0.051l0.157,0.012l0.078,0.004c0.285,0.019,0.574,0.031,0.865,0.041l0.062,0.002
		c0.183,0.008,0.366,0.011,0.549,0.014c0.181,0.004,0.359,0.005,0.537,0.005l0.061-0.001c0.345-0.002,0.684-0.009,1.021-0.021
		l0.104-0.002l0.081-0.004c0.415-0.016,0.82-0.039,1.22-0.07l0.085-0.006l0.076-0.008c0.344-0.028,0.68-0.063,1.01-0.102l0.17-0.021
		c0.329-0.041,0.653-0.086,0.971-0.139l0.064-0.01l0.074-0.014c0.389-0.064,0.768-0.137,1.137-0.217l0.133-0.029
		c0.365-0.08,0.721-0.17,1.063-0.266l0.068-0.017l0.049-0.017c0.296-0.082,0.582-0.174,0.857-0.268l0.119-0.039
		c0.277-0.096,0.542-0.197,0.796-0.304l0.06-0.021l0.063-0.029c0.112-0.049,0.224-0.098,0.331-0.146l0.15-0.068
		c0.137-0.063,0.271-0.131,0.4-0.198l0.041-0.021l0.008-0.005c0.231-0.122,0.447-0.253,0.649-0.382l0.034-0.02l0.012-0.01
		c0.165-0.105,0.317-0.218,0.463-0.33l0.055-0.039l0.039-0.033c0.131-0.105,0.254-0.213,0.367-0.32l0.016-0.014l0.035-0.041
		c0.092-0.09,0.178-0.182,0.257-0.275l0.043-0.048l0.024-0.034c0.088-0.107,0.168-0.215,0.235-0.326l0.004-0.004l0.011-0.016
		c0.063-0.104,0.118-0.211,0.168-0.316l0.021-0.042l0.018-0.046c0.043-0.104,0.084-0.211,0.108-0.318l0.012-0.027V62.65
		c0.031-0.123,0.052-0.246,0.062-0.371l0.008-0.041l0.006-0.161l-0.068-7.813L53.461,54.467z"/>
	<path fill="#333333" d="M53.461,43.273c-0.012,0.123-0.031,0.246-0.061,0.369l-0.012,0.037c-0.029,0.105-0.066,0.211-0.111,0.316
		l-0.037,0.088c-0.051,0.105-0.104,0.209-0.166,0.313l-0.018,0.025c-0.066,0.107-0.15,0.219-0.233,0.324l-0.069,0.081
		c-0.082,0.096-0.167,0.188-0.26,0.28l-0.047,0.049c-0.114,0.109-0.24,0.22-0.373,0.324l-0.084,0.064
		c-0.148,0.116-0.303,0.229-0.473,0.339l-0.031,0.021c-0.207,0.135-0.432,0.267-0.67,0.392c-0.142,0.076-0.289,0.149-0.439,0.222
		l-0.154,0.07c-0.104,0.046-0.209,0.096-0.318,0.143l-0.137,0.055c-0.254,0.105-0.519,0.205-0.793,0.3l-0.111,0.038
		c-0.279,0.096-0.567,0.186-0.866,0.27l-0.11,0.03c-0.343,0.095-0.699,0.185-1.068,0.267l-0.129,0.028
		c-0.373,0.081-0.756,0.153-1.152,0.222l-0.121,0.021c-0.318,0.052-0.643,0.097-0.971,0.138l-0.172,0.021
		c-0.332,0.039-0.668,0.072-1.01,0.102l-0.16,0.014c-0.4,0.031-0.808,0.056-1.22,0.07l-0.188,0.01
		c-0.336,0.011-0.678,0.019-1.021,0.019c-0.197,0-0.396,0-0.596-0.004c-0.206-0.002-0.409-0.009-0.611-0.015
		c-0.291-0.01-0.581-0.024-0.867-0.043l-0.229-0.014c-0.222-0.016-0.441-0.033-0.659-0.053l-0.224-0.02
		c-0.272-0.025-0.539-0.056-0.803-0.086l-0.162-0.021c-0.225-0.029-0.445-0.062-0.665-0.095l-0.215-0.032
		c-0.269-0.043-0.535-0.086-0.795-0.136l-0.063-0.012c-0.258-0.051-0.512-0.104-0.762-0.16l-0.183-0.039
		c-0.28-0.065-0.556-0.133-0.825-0.205l-0.134-0.037c-0.316-0.086-0.623-0.18-0.92-0.274l-0.188-0.063
		c-0.123-0.041-0.244-0.082-0.362-0.127L31.2,46.822c-0.117-0.045-0.231-0.09-0.344-0.135l-0.197-0.08l-0.23-0.099l-0.22-0.097
		l-0.222-0.105l-0.209-0.102l-0.208-0.109l-0.197-0.104l-0.197-0.114l-0.184-0.106l-0.185-0.117l-0.169-0.11l-0.17-0.122
		l-0.158-0.111l-0.157-0.127l-0.146-0.115l-0.143-0.129l-0.132-0.119l-0.127-0.131l-0.119-0.123l-0.108-0.133l-0.105-0.127
		l-0.094-0.134l-0.09-0.131l-0.08-0.138l-0.078-0.133l-0.06-0.139l-0.059-0.135l-0.046-0.143l-0.042-0.135l-0.031-0.158
		l-0.023-0.121c-0.013-0.094-0.019-0.189-0.019-0.285l0.068,7.814c0,0.096,0.006,0.188,0.019,0.284l0.016,0.086l0.039,0.194
		l0.033,0.104l0.055,0.174l0.047,0.11l0.074,0.164l0.063,0.113l0.089,0.155l0.081,0.115l0.103,0.148l0.095,0.115l0.123,0.145
		l0.109,0.113l0.135,0.139l0.126,0.115l0.148,0.133l0.14,0.113l0.162,0.128l0.156,0.114l0.173,0.119l0.173,0.113l0.182,0.115
		l0.188,0.109l0.192,0.111l0.202,0.107l0.204,0.104l0.219,0.107l0.207,0.1l0.236,0.104l0.216,0.092l0.072,0.03l0.132,0.054
		c0.114,0.044,0.225,0.088,0.34,0.131l0.213,0.078c0.122,0.044,0.242,0.086,0.366,0.129l0.14,0.048l0.044,0.012
		c0.295,0.099,0.601,0.188,0.917,0.274l0.079,0.022l0.063,0.017c0.266,0.072,0.54,0.14,0.818,0.203l0.078,0.021l0.112,0.021
		c0.251,0.058,0.502,0.108,0.761,0.157l0.047,0.011l0.012,0.002c0.26,0.049,0.524,0.095,0.79,0.136l0.102,0.018l0.124,0.018
		c0.215,0.033,0.432,0.063,0.653,0.092l0.129,0.018l0.042,0.005c0.263,0.032,0.528,0.062,0.797,0.086l0.083,0.01l0.15,0.011
		c0.214,0.02,0.43,0.037,0.648,0.051l0.157,0.012l0.078,0.005c0.285,0.017,0.574,0.03,0.865,0.04l0.062,0.004
		c0.183,0.005,0.366,0.01,0.549,0.014c0.181,0.002,0.359,0.002,0.537,0.002h0.061c0.345,0,0.684-0.01,1.021-0.02l0.104-0.002
		l0.081-0.006c0.415-0.016,0.82-0.039,1.22-0.071l0.085-0.005l0.076-0.008c0.344-0.028,0.68-0.063,1.01-0.102l0.17-0.021
		c0.329-0.042,0.653-0.088,0.971-0.141l0.064-0.008l0.074-0.014c0.389-0.064,0.768-0.139,1.137-0.219l0.133-0.028
		c0.365-0.081,0.721-0.169,1.063-0.265l0.068-0.016l0.049-0.019c0.296-0.082,0.582-0.173,0.857-0.267l0.119-0.039
		c0.277-0.098,0.542-0.196,0.796-0.305l0.06-0.021l0.063-0.028c0.112-0.047,0.224-0.095,0.331-0.146l0.15-0.067
		c0.137-0.065,0.271-0.132,0.4-0.2l0.041-0.02l0.008-0.006c0.231-0.123,0.447-0.252,0.649-0.383l0.034-0.018l0.012-0.01
		c0.165-0.106,0.317-0.219,0.463-0.332l0.055-0.037l0.039-0.035c0.131-0.105,0.254-0.21,0.367-0.32l0.016-0.013l0.035-0.04
		c0.092-0.09,0.178-0.184,0.257-0.277l0.043-0.047l0.024-0.033c0.088-0.107,0.168-0.217,0.235-0.326l0.004-0.004l0.011-0.018
		c0.063-0.104,0.118-0.209,0.168-0.316l0.021-0.041l0.018-0.047c0.043-0.104,0.084-0.209,0.108-0.316l0.012-0.029v-0.007
		c0.031-0.122,0.052-0.246,0.062-0.369l0.008-0.043l0.006-0.161l-0.068-7.813L53.461,43.273z"/>
	<path fill="#333333" d="M53.461,32.079c-0.009,0.095-0.027,0.189-0.047,0.284c-0.572-2.816-6.34-5.112-13.371-5.22
		c-7.025-0.108-12.771,2.004-13.339,4.797l-0.014-0.07l-0.023-0.121c-0.013-0.095-0.019-0.19-0.019-0.285l0.008,0.875
		c0,0.021-0.008,0.042-0.008,0.063c0,0.023,0.008,0.046,0.009,0.069l0.059,6.807c0,0.096,0.006,0.19,0.019,0.284l0.016,0.086
		l0.039,0.195l0.033,0.102l0.055,0.175l0.047,0.109l0.074,0.163l0.063,0.114l0.089,0.156l0.081,0.115l0.103,0.146l0.095,0.116
		l0.123,0.146l0.109,0.112l0.135,0.14l0.126,0.115l0.148,0.133l0.14,0.112l0.162,0.13l0.156,0.112l0.173,0.121l0.173,0.112
		l0.182,0.115l0.188,0.11l0.192,0.11l0.202,0.106l0.204,0.104l0.219,0.106l0.207,0.099l0.236,0.105l0.216,0.092l0.072,0.03
		l0.132,0.054c0.114,0.043,0.225,0.088,0.34,0.131l0.213,0.078c0.122,0.043,0.242,0.086,0.366,0.127l0.14,0.049l0.044,0.013
		c0.295,0.098,0.601,0.188,0.917,0.272l0.079,0.024l0.063,0.015c0.266,0.073,0.54,0.141,0.818,0.205l0.078,0.018l0.112,0.023
		c0.251,0.055,0.502,0.107,0.761,0.157l0.047,0.011l0.012,0.002c0.26,0.049,0.524,0.094,0.79,0.135l0.102,0.019l0.124,0.019
		c0.215,0.03,0.432,0.062,0.653,0.09l0.129,0.018l0.042,0.006c0.263,0.031,0.528,0.059,0.797,0.084l0.083,0.01l0.15,0.012
		c0.214,0.02,0.43,0.035,0.648,0.052l0.157,0.011l0.078,0.004c0.285,0.02,0.574,0.031,0.865,0.041l0.062,0.004
		c0.183,0.006,0.366,0.012,0.549,0.012c0.181,0.004,0.359,0.005,0.538,0.005l0.06-0.001c0.345-0.002,0.684-0.008,1.021-0.02h0.105
		l0.081-0.007c0.415-0.017,0.819-0.041,1.22-0.071l0.085-0.004l0.076-0.009c0.344-0.028,0.68-0.063,1.01-0.104l0.17-0.02
		c0.329-0.042,0.653-0.088,0.972-0.139l0.063-0.008l0.074-0.017c0.389-0.063,0.769-0.139,1.137-0.219l0.132-0.024
		c0.366-0.082,0.721-0.172,1.063-0.268l0.069-0.018l0.047-0.016c0.297-0.084,0.584-0.174,0.858-0.268l0.119-0.039
		c0.276-0.098,0.542-0.197,0.796-0.303l0.061-0.021l0.063-0.029c0.112-0.047,0.223-0.096,0.331-0.146l0.149-0.065
		c0.138-0.068,0.271-0.134,0.4-0.201l0.041-0.021l0.008-0.006c0.232-0.123,0.448-0.25,0.65-0.382l0.034-0.02l0.012-0.008
		c0.165-0.107,0.317-0.219,0.462-0.332l0.055-0.039l0.039-0.035c0.131-0.104,0.254-0.21,0.367-0.318l0.016-0.014l0.037-0.039
		c0.09-0.092,0.177-0.184,0.256-0.279l0.043-0.045l0.023-0.035c0.088-0.106,0.168-0.215,0.236-0.325l0.004-0.004l0.01-0.017
		c0.063-0.104,0.119-0.209,0.168-0.315l0.022-0.043l0.017-0.048c0.045-0.104,0.084-0.208,0.109-0.315l0.012-0.029V40.26
		c0.031-0.122,0.051-0.245,0.061-0.371l0.009-0.04l0.006-0.161l-0.069-7.815L53.461,32.079z"/>
</g>
</svg>
