<?xml version="1.0" encoding="utf-8"?>
<!-- Generator: Adobe Illustrator 15.1.0, SVG Export Plug-In . SVG Version: 6.00 Build 0)  -->
<!DOCTYPE svg PUBLIC "-//W3C//DTD SVG 1.1 Tiny//EN" "http://www.w3.org/Graphics/SVG/1.1/DTD/svg11-tiny.dtd">
<svg version="1.1" baseProfile="tiny" id="Layer_1" xmlns="http://www.w3.org/2000/svg" xmlns:xlink="http://www.w3.org/1999/xlink"
	 x="0px" y="0px" width="80px" height="80px" viewBox="0 0 80 80" xml:space="preserve">
<g>
	<path fill="#333333" d="M58,16V4H46v12H34V4H22v12H10v60h60V16H58z M53.535,62.24l-0.008,0.041
		c-0.01,0.123-0.029,0.248-0.062,0.369v0.009l-0.012,0.028c-0.024,0.106-0.065,0.215-0.108,0.317l-0.018,0.046l-0.021,0.043
		c-0.05,0.105-0.104,0.213-0.168,0.315l-0.011,0.016l-0.004,0.005c-0.067,0.11-0.147,0.219-0.235,0.325l-0.025,0.034l-0.043,0.048
		c-0.078,0.095-0.164,0.187-0.256,0.274l-0.035,0.043l-0.016,0.013c-0.113,0.108-0.236,0.215-0.367,0.319l-0.039,0.033l-0.056,0.039
		c-0.145,0.113-0.297,0.226-0.462,0.332l-0.011,0.01l-0.034,0.02c-0.202,0.129-0.418,0.26-0.65,0.383l-0.008,0.004l-0.041,0.021
		c-0.129,0.067-0.264,0.135-0.4,0.198l-0.149,0.068c-0.108,0.051-0.219,0.1-0.331,0.147L49.9,65.77l-0.061,0.021
		c-0.254,0.105-0.52,0.208-0.796,0.305l-0.119,0.038c-0.274,0.095-0.563,0.185-0.858,0.269l-0.047,0.016l-0.069,0.016
		c-0.343,0.098-0.696,0.187-1.063,0.267l-0.132,0.028c-0.368,0.08-0.748,0.152-1.137,0.217l-0.074,0.015l-0.063,0.011
		c-0.317,0.051-0.643,0.098-0.972,0.139l-0.17,0.021c-0.33,0.038-0.666,0.072-1.01,0.103l-0.076,0.006l-0.085,0.007
		c-0.398,0.032-0.805,0.056-1.22,0.071l-0.081,0.004l-0.105,0.002c-0.338,0.012-0.677,0.019-1.021,0.021h-0.06
		c-0.179,0-0.356,0-0.538-0.005c-0.183-0.003-0.366-0.006-0.549-0.013l-0.062-0.002c-0.291-0.01-0.58-0.023-0.865-0.041
		l-0.078-0.004l-0.157-0.012c-0.218-0.017-0.434-0.031-0.648-0.052l-0.15-0.012l-0.083-0.009c-0.269-0.026-0.535-0.055-0.797-0.088
		l-0.042-0.002l-0.129-0.02c-0.221-0.027-0.438-0.059-0.653-0.092l-0.124-0.016l-0.102-0.019c-0.266-0.041-0.53-0.086-0.79-0.136
		l-0.012-0.002l-0.047-0.01c-0.259-0.049-0.51-0.104-0.761-0.156l-0.112-0.022l-0.078-0.021c-0.278-0.065-0.552-0.133-0.818-0.204
		l-0.063-0.015l-0.079-0.024c-0.315-0.087-0.621-0.177-0.917-0.271l-0.044-0.016l-0.14-0.048c-0.124-0.043-0.244-0.084-0.366-0.127
		l-0.213-0.079c-0.116-0.042-0.227-0.087-0.34-0.133l-0.132-0.051l-0.072-0.031l-0.216-0.092l-0.236-0.104l-0.207-0.099
		l-0.219-0.105l-0.204-0.105l-0.202-0.107l-0.192-0.111l-0.188-0.109l-0.182-0.114l-0.173-0.112l-0.173-0.123l-0.156-0.113
		l-0.162-0.127l-0.14-0.114l-0.148-0.134l-0.126-0.113l-0.135-0.139l-0.109-0.114L27.43,63.43l-0.095-0.115l-0.103-0.147
		l-0.081-0.114l-0.089-0.156l-0.063-0.113l-0.074-0.164l-0.047-0.109l-0.055-0.174l-0.033-0.104l-0.039-0.195l-0.016-0.085
		c-0.012-0.095-0.019-0.188-0.019-0.284l-0.068-7.814c0,0.096,0.006,0.189,0.019,0.285l0.023,0.119l0.031,0.16l0.042,0.135
		l0.046,0.143l0.059,0.136l0.06,0.14l0.078,0.133l0.08,0.135l0.09,0.131l0.094,0.133l0.105,0.127l0.108,0.135l0.119,0.123
		l0.127,0.129l0.132,0.119l0.143,0.129l0.146,0.117l0.157,0.125l0.158,0.114l0.17,0.121l0.169,0.11l0.185,0.119l0.184,0.104
		l0.197,0.114l0.197,0.104l0.208,0.108l0.209,0.103l0.222,0.104l0.22,0.099l0.23,0.099l0.197,0.08
		c0.113,0.045,0.228,0.09,0.344,0.133l0.212,0.078c0.118,0.043,0.24,0.086,0.362,0.127l0.188,0.063
		c0.297,0.097,0.604,0.188,0.92,0.273l0.134,0.037c0.27,0.071,0.545,0.141,0.825,0.205l0.183,0.04
		c0.25,0.056,0.504,0.109,0.762,0.158l0.063,0.013c0.261,0.049,0.526,0.094,0.795,0.137l0.215,0.031
		c0.22,0.032,0.44,0.064,0.665,0.092l0.162,0.022c0.264,0.032,0.531,0.06,0.803,0.084L37.71,59.4
		c0.218,0.021,0.437,0.035,0.659,0.053l0.229,0.015c0.286,0.019,0.576,0.031,0.867,0.041c0.202,0.007,0.405,0.013,0.611,0.017
		c0.199,0.002,0.398,0.002,0.596,0.002c0.342,0,0.686-0.008,1.02-0.019l0.189-0.007c0.412-0.018,0.818-0.042,1.219-0.07l0.16-0.015
		c0.342-0.028,0.68-0.063,1.012-0.103l0.17-0.021c0.328-0.041,0.652-0.087,0.972-0.139l0.121-0.021
		c0.396-0.065,0.778-0.141,1.151-0.221l0.131-0.029c0.369-0.079,0.726-0.169,1.067-0.265l0.11-0.029
		c0.299-0.086,0.587-0.177,0.867-0.271l0.111-0.037c0.273-0.096,0.539-0.196,0.793-0.301l0.137-0.058
		c0.109-0.046,0.213-0.092,0.318-0.14l0.153-0.07c0.149-0.072,0.299-0.146,0.438-0.221c0.238-0.126,0.463-0.258,0.672-0.393
		l0.029-0.021c0.17-0.108,0.324-0.224,0.473-0.338l0.084-0.063c0.134-0.107,0.26-0.216,0.373-0.326l0.048-0.047
		c0.093-0.094,0.178-0.188,0.26-0.281l0.069-0.082c0.082-0.107,0.166-0.215,0.234-0.324l0.016-0.024
		c0.063-0.104,0.117-0.208,0.166-0.313l0.037-0.088c0.045-0.104,0.082-0.211,0.111-0.317l0.012-0.036
		c0.029-0.122,0.049-0.246,0.062-0.37l0.011-0.202l0.069,7.813L53.535,62.24z M53.535,51.045l-0.008,0.043
		c-0.01,0.123-0.029,0.247-0.062,0.369v0.007l-0.012,0.03c-0.024,0.107-0.065,0.213-0.108,0.316l-0.018,0.047l-0.021,0.041
		c-0.05,0.106-0.104,0.213-0.168,0.315l-0.011,0.019l-0.004,0.002c-0.067,0.111-0.147,0.22-0.235,0.326l-0.025,0.035l-0.043,0.047
		c-0.078,0.094-0.164,0.188-0.256,0.276l-0.035,0.04l-0.016,0.014c-0.113,0.109-0.236,0.215-0.367,0.319l-0.039,0.035l-0.056,0.038
		c-0.145,0.113-0.297,0.225-0.462,0.33l-0.012,0.011l-0.034,0.019c-0.202,0.131-0.418,0.26-0.649,0.383l-0.008,0.004l-0.041,0.021
		c-0.13,0.069-0.265,0.136-0.4,0.2l-0.15,0.066c-0.107,0.053-0.219,0.101-0.331,0.146l-0.063,0.03l-0.061,0.021
		c-0.254,0.107-0.52,0.207-0.796,0.305l-0.119,0.039c-0.274,0.095-0.563,0.185-0.858,0.267l-0.047,0.019L47.95,55.24
		c-0.343,0.096-0.696,0.184-1.063,0.265l-0.132,0.028c-0.368,0.08-0.748,0.152-1.137,0.219l-0.074,0.014l-0.063,0.008
		c-0.317,0.054-0.643,0.099-0.972,0.141l-0.17,0.021c-0.33,0.039-0.666,0.072-1.01,0.102l-0.076,0.008l-0.085,0.005
		c-0.398,0.032-0.805,0.056-1.22,0.071l-0.081,0.006l-0.105,0.002c-0.338,0.01-0.677,0.02-1.021,0.02h-0.06
		c-0.179,0-0.356,0-0.538-0.002c-0.183-0.004-0.366-0.008-0.549-0.014l-0.062-0.004c-0.291-0.01-0.58-0.023-0.865-0.04l-0.078-0.005
		l-0.157-0.012c-0.218-0.014-0.434-0.031-0.648-0.051l-0.15-0.01l-0.083-0.011c-0.269-0.024-0.535-0.054-0.797-0.086l-0.042-0.004
		l-0.129-0.019c-0.221-0.029-0.438-0.059-0.653-0.092l-0.124-0.017l-0.102-0.019c-0.266-0.041-0.53-0.086-0.79-0.136l-0.012-0.002
		l-0.047-0.01c-0.259-0.05-0.51-0.103-0.761-0.158l-0.112-0.021l-0.078-0.021c-0.278-0.063-0.552-0.131-0.818-0.203L33.024,55.2
		l-0.079-0.022c-0.315-0.087-0.621-0.178-0.917-0.275l-0.044-0.012l-0.14-0.047c-0.124-0.044-0.244-0.086-0.366-0.13l-0.213-0.077
		c-0.116-0.043-0.227-0.088-0.34-0.132l-0.132-0.053l-0.072-0.031l-0.216-0.092l-0.236-0.104l-0.207-0.1l-0.219-0.107l-0.204-0.104
		l-0.202-0.107l-0.192-0.111l-0.188-0.109l-0.182-0.115l-0.173-0.113l-0.173-0.119l-0.156-0.114l-0.162-0.128l-0.14-0.113
		l-0.148-0.133l-0.126-0.115l-0.135-0.139l-0.109-0.113l-0.123-0.145l-0.095-0.115l-0.103-0.148l-0.081-0.115l-0.089-0.155
		l-0.063-0.113l-0.074-0.163l-0.047-0.111l-0.055-0.174l-0.033-0.104l-0.039-0.193l-0.016-0.087
		c-0.012-0.096-0.019-0.188-0.019-0.284l-0.068-7.813c0,0.095,0.006,0.19,0.019,0.284l0.023,0.121l0.031,0.158l0.042,0.135
		l0.046,0.143l0.059,0.135l0.06,0.139l0.078,0.134l0.08,0.137l0.09,0.132l0.094,0.133l0.105,0.127l0.108,0.133l0.119,0.123
		l0.127,0.131l0.132,0.119l0.143,0.129l0.146,0.115l0.157,0.127l0.158,0.111l0.17,0.122l0.169,0.111l0.185,0.116l0.184,0.106
		l0.197,0.114l0.197,0.104l0.208,0.109l0.209,0.102l0.222,0.105l0.22,0.098l0.23,0.098l0.197,0.08
		c0.113,0.045,0.228,0.091,0.344,0.136l0.212,0.075c0.118,0.045,0.24,0.086,0.362,0.127l0.188,0.064
		c0.297,0.096,0.604,0.188,0.92,0.274l0.134,0.036c0.27,0.072,0.545,0.14,0.825,0.205l0.183,0.039
		c0.25,0.058,0.504,0.109,0.762,0.16l0.063,0.012c0.261,0.05,0.526,0.093,0.795,0.136l0.215,0.032
		c0.22,0.033,0.44,0.064,0.665,0.095l0.162,0.021c0.264,0.03,0.531,0.061,0.803,0.086l0.224,0.02
		c0.218,0.02,0.437,0.037,0.659,0.053L38.6,48.27c0.286,0.019,0.576,0.033,0.867,0.043c0.202,0.006,0.405,0.013,0.611,0.015
		c0.199,0.004,0.398,0.004,0.596,0.004c0.342,0,0.686-0.009,1.02-0.019l0.189-0.01c0.412-0.016,0.818-0.039,1.219-0.07l0.16-0.014
		c0.342-0.027,0.68-0.063,1.012-0.102l0.17-0.021c0.328-0.041,0.652-0.087,0.972-0.138l0.121-0.021
		c0.396-0.067,0.778-0.141,1.151-0.222l0.131-0.028c0.369-0.082,0.726-0.172,1.068-0.267l0.109-0.03
		c0.299-0.084,0.587-0.174,0.867-0.27l0.111-0.038c0.273-0.095,0.539-0.194,0.793-0.3l0.137-0.055
		c0.109-0.047,0.213-0.097,0.318-0.143l0.153-0.07c0.149-0.07,0.299-0.146,0.438-0.222c0.238-0.125,0.463-0.257,0.672-0.392
		l0.029-0.021c0.17-0.108,0.324-0.223,0.473-0.339l0.085-0.064c0.133-0.104,0.259-0.215,0.372-0.324l0.048-0.049
		c0.093-0.092,0.178-0.186,0.26-0.28l0.069-0.081c0.082-0.105,0.166-0.217,0.234-0.324l0.017-0.025
		c0.063-0.104,0.116-0.207,0.165-0.313l0.037-0.088c0.045-0.105,0.082-0.211,0.111-0.316l0.012-0.037
		c0.029-0.123,0.05-0.246,0.062-0.369l0.011-0.203l0.069,7.813L53.535,51.045z M53.535,39.852l-0.008,0.04
		c-0.01,0.125-0.029,0.249-0.062,0.371v0.007l-0.012,0.029c-0.024,0.108-0.065,0.213-0.108,0.316l-0.018,0.047l-0.021,0.043
		c-0.05,0.105-0.104,0.211-0.168,0.316l-0.011,0.016l-0.004,0.004c-0.067,0.109-0.147,0.219-0.235,0.326l-0.025,0.035l-0.043,0.045
		c-0.078,0.096-0.164,0.188-0.256,0.279l-0.035,0.039l-0.016,0.014c-0.113,0.107-0.236,0.215-0.367,0.318l-0.039,0.034l-0.056,0.039
		c-0.145,0.113-0.297,0.226-0.462,0.332l-0.012,0.009l-0.034,0.018c-0.202,0.133-0.418,0.26-0.649,0.383l-0.008,0.006l-0.041,0.02
		c-0.13,0.068-0.265,0.135-0.4,0.201l-0.15,0.066c-0.107,0.051-0.219,0.1-0.331,0.146L49.9,43.381l-0.061,0.021
		c-0.254,0.104-0.52,0.205-0.796,0.303l-0.119,0.039c-0.274,0.094-0.563,0.184-0.858,0.268l-0.047,0.016l-0.069,0.018
		c-0.343,0.096-0.696,0.186-1.063,0.268l-0.132,0.024c-0.368,0.08-0.748,0.154-1.137,0.22l-0.074,0.016L45.48,44.58
		c-0.317,0.051-0.643,0.098-0.972,0.139l-0.17,0.02c-0.33,0.041-0.666,0.074-1.01,0.105l-0.076,0.008l-0.085,0.004
		c-0.398,0.031-0.805,0.057-1.22,0.072l-0.081,0.006h-0.105c-0.338,0.012-0.677,0.019-1.021,0.02l-0.06,0.001
		c-0.179,0-0.356-0.001-0.538-0.004c-0.183-0.001-0.366-0.007-0.549-0.013l-0.062-0.004c-0.291-0.01-0.58-0.021-0.865-0.041
		l-0.078-0.004l-0.157-0.011c-0.218-0.017-0.434-0.032-0.648-0.051l-0.15-0.013l-0.083-0.01c-0.269-0.025-0.535-0.053-0.797-0.084
		l-0.042-0.006l-0.129-0.018c-0.221-0.028-0.438-0.059-0.653-0.09l-0.124-0.019l-0.102-0.019c-0.266-0.041-0.53-0.086-0.79-0.135
		l-0.012-0.002l-0.047-0.011c-0.259-0.05-0.51-0.103-0.761-0.157l-0.112-0.022l-0.078-0.019c-0.278-0.063-0.552-0.131-0.818-0.205
		l-0.063-0.015l-0.079-0.024c-0.315-0.086-0.621-0.176-0.917-0.272l-0.044-0.013l-0.14-0.049c-0.124-0.041-0.244-0.084-0.366-0.127
		l-0.213-0.078c-0.116-0.043-0.227-0.088-0.34-0.131l-0.132-0.054l-0.072-0.03l-0.216-0.092l-0.236-0.105l-0.207-0.098l-0.219-0.106
		l-0.204-0.104l-0.202-0.107l-0.192-0.11l-0.188-0.11l-0.182-0.115l-0.173-0.112l-0.173-0.121l-0.156-0.112l-0.162-0.129
		l-0.14-0.113l-0.148-0.133l-0.126-0.115l-0.135-0.139l-0.109-0.113l-0.123-0.146l-0.095-0.116l-0.103-0.146l-0.081-0.115
		l-0.089-0.156l-0.063-0.114l-0.074-0.163l-0.047-0.109l-0.055-0.175l-0.033-0.102l-0.039-0.195l-0.016-0.086
		c-0.012-0.093-0.019-0.188-0.019-0.284l-0.059-6.807c-0.001-0.023-0.009-0.045-0.009-0.069c0-0.021,0.007-0.042,0.008-0.063
		l-0.008-0.875c0,0.095,0.006,0.19,0.019,0.285l0.023,0.121l0.014,0.07c0.568-2.793,6.314-4.905,13.339-4.797
		c7.031,0.108,12.799,2.404,13.371,5.22c0.02-0.094,0.038-0.189,0.047-0.284l0.012-0.203l0.068,7.815L53.535,39.852z"/>
</g>
</svg>
