<?xml version="1.0" encoding="utf-8"?>
<!-- Generator: Adobe Illustrator 15.1.0, SVG Export Plug-In . SVG Version: 6.00 Build 0)  -->
<!DOCTYPE svg PUBLIC "-//W3C//DTD SVG 1.1 Tiny//EN" "http://www.w3.org/Graphics/SVG/1.1/DTD/svg11-tiny.dtd">
<svg version="1.1" baseProfile="tiny" id="Layer_1" xmlns="http://www.w3.org/2000/svg" xmlns:xlink="http://www.w3.org/1999/xlink"
	 x="0px" y="0px" width="100px" height="100px" viewBox="0 0 100 100" xml:space="preserve">
<path fill="#F05A29" d="M78,23V5H60v18H42V5H24v18H12v72h78V23H78z"/>
<g>
	<path fill="#FFFFFF" d="M22.69,63.676c0,0.702-0.24,1.241-0.72,1.618s-1.149,0.565-2.007,0.565h-0.467l-0.488,2.322H18l1.313-6.211
		h1.419c0.648,0,1.137,0.143,1.466,0.428C22.526,62.684,22.69,63.109,22.69,63.676z M19.678,65.005h0.399
		c0.504,0,0.895-0.112,1.17-0.338c0.276-0.226,0.414-0.544,0.414-0.958c0-0.309-0.083-0.533-0.249-0.675s-0.419-0.214-0.762-0.214
		h-0.506L19.678,65.005z"/>
	<path fill="#FFFFFF" d="M23.797,68.184h-0.994l1.402-6.611h0.998L23.797,68.184z"/>
	<path fill="#FFFFFF" d="M27.058,63.484l-0.548,2.591c-0.088,0.399-0.132,0.673-0.132,0.819c0,0.377,0.18,0.565,0.54,0.565
		c0.204,0,0.406-0.081,0.607-0.241c0.201-0.162,0.379-0.393,0.535-0.691c0.156-0.297,0.276-0.648,0.361-1.051l0.42-1.992h0.99
		l-0.99,4.697h-0.786l0.089-0.871H28.11c-0.232,0.33-0.475,0.57-0.727,0.726s-0.524,0.231-0.815,0.231
		c-0.38,0-0.673-0.107-0.879-0.324c-0.207-0.215-0.31-0.522-0.31-0.926c0-0.179,0.017-0.354,0.051-0.527
		c0.034-0.176,0.068-0.35,0.102-0.525l0.522-2.48H27.058L27.058,63.484z"/>
	<path fill="#FFFFFF" d="M34.808,63.484l-0.132,0.582l-0.815,0.14c0.079,0.165,0.119,0.358,0.119,0.582
		c0,0.547-0.169,0.981-0.506,1.303c-0.337,0.322-0.789,0.481-1.355,0.481c-0.147,0-0.277-0.012-0.391-0.033
		c-0.314,0.113-0.472,0.26-0.472,0.441c0,0.106,0.044,0.182,0.134,0.221c0.089,0.04,0.219,0.07,0.389,0.094l0.54,0.066
		c0.499,0.063,0.855,0.188,1.07,0.373c0.215,0.185,0.323,0.451,0.323,0.797c0,0.555-0.213,0.982-0.641,1.287
		c-0.428,0.303-1.035,0.453-1.823,0.453c-0.575,0-1.02-0.105-1.336-0.317c-0.315-0.213-0.474-0.504-0.474-0.875
		c0-0.292,0.099-0.544,0.295-0.756c0.197-0.214,0.513-0.394,0.949-0.54c-0.215-0.127-0.323-0.309-0.323-0.539
		c0-0.195,0.066-0.365,0.198-0.508c0.131-0.145,0.339-0.281,0.622-0.414c-0.382-0.229-0.573-0.588-0.573-1.07
		c0-0.557,0.173-1.003,0.521-1.343c0.347-0.341,0.805-0.511,1.374-0.511c0.227,0,0.453,0.029,0.68,0.086H34.808z M31.329,68.105
		c-0.317,0.052-0.561,0.151-0.731,0.303c-0.17,0.148-0.255,0.335-0.255,0.556c0,0.185,0.079,0.331,0.236,0.44
		c0.157,0.107,0.397,0.162,0.72,0.162c0.461,0,0.823-0.075,1.083-0.229c0.261-0.152,0.391-0.372,0.391-0.658
		c0-0.145-0.064-0.258-0.191-0.34s-0.351-0.141-0.671-0.174L31.329,68.105z M32.476,64.066c-0.184,0-0.346,0.055-0.484,0.162
		c-0.139,0.109-0.247,0.258-0.323,0.446c-0.077,0.188-0.115,0.396-0.115,0.618c0,0.201,0.05,0.355,0.151,0.465
		s0.244,0.164,0.431,0.164c0.184,0,0.343-0.056,0.478-0.166c0.134-0.109,0.239-0.262,0.314-0.453
		c0.075-0.193,0.113-0.404,0.113-0.634C33.041,64.268,32.853,64.066,32.476,64.066z"/>
	<path fill="#FFFFFF" d="M35.601,68.184h-1.002l1.002-4.699H36.6L35.601,68.184z M35.8,62.329c0-0.192,0.055-0.349,0.166-0.468
		c0.111-0.119,0.266-0.178,0.467-0.178c0.15,0,0.272,0.037,0.365,0.111c0.094,0.075,0.141,0.188,0.141,0.342
		c0,0.201-0.057,0.359-0.17,0.477s-0.262,0.175-0.446,0.175c-0.15,0-0.275-0.037-0.374-0.11C35.85,62.604,35.8,62.486,35.8,62.329z"
		/>
	<path fill="#FFFFFF" d="M39.685,68.184l0.604-2.854c0.051-0.255,0.076-0.44,0.076-0.558c0-0.371-0.183-0.557-0.548-0.557
		c-0.204,0-0.405,0.081-0.603,0.242c-0.198,0.161-0.377,0.395-0.536,0.699c-0.158,0.304-0.277,0.648-0.356,1.033l-0.417,1.992
		h-1.002l1.002-4.697h0.782l-0.089,0.871h0.038c0.235-0.336,0.478-0.578,0.727-0.729c0.25-0.151,0.52-0.228,0.812-0.228
		c0.379,0,0.673,0.106,0.881,0.322c0.208,0.215,0.313,0.521,0.313,0.918c0,0.194-0.033,0.451-0.098,0.768l-0.582,2.775h-1.004
		V68.184z"/>
	<path fill="#FFFFFF" d="M45.069,66.738c0,0.49-0.167,0.867-0.501,1.132s-0.799,0.397-1.394,0.397c-0.538,0-0.994-0.096-1.368-0.285
		v-0.861c0.433,0.255,0.875,0.382,1.325,0.382c0.275,0,0.497-0.058,0.667-0.17s0.255-0.269,0.255-0.463
		c0-0.146-0.049-0.269-0.146-0.372c-0.097-0.104-0.298-0.241-0.601-0.414c-0.354-0.189-0.604-0.383-0.75-0.58
		c-0.146-0.195-0.219-0.43-0.219-0.697c0-0.439,0.152-0.783,0.455-1.033c0.303-0.248,0.712-0.373,1.228-0.373
		c0.555,0,1.045,0.119,1.47,0.355l-0.323,0.748c-0.396-0.215-0.773-0.322-1.13-0.322c-0.207,0-0.375,0.047-0.503,0.141
		s-0.193,0.224-0.193,0.391c0,0.128,0.047,0.241,0.141,0.34c0.093,0.1,0.284,0.227,0.573,0.383c0.297,0.168,0.508,0.311,0.633,0.43
		s0.22,0.248,0.285,0.389C45.037,66.393,45.069,66.555,45.069,66.738z"/>
	<path fill="#FFFFFF" d="M47.427,70.271c-0.255,0-0.466-0.031-0.633-0.098v-0.807c0.181,0.057,0.342,0.085,0.484,0.085
		c0.38,0,0.63-0.291,0.752-0.871l0.922-4.343h-0.76l0.089-0.449l0.824-0.322l0.089-0.392c0.125-0.562,0.315-0.959,0.571-1.195
		c0.256-0.235,0.62-0.354,1.09-0.354c0.324,0,0.623,0.062,0.896,0.184l-0.259,0.747c-0.21-0.079-0.402-0.119-0.578-0.119
		c-0.195,0-0.352,0.062-0.469,0.183c-0.118,0.123-0.208,0.322-0.27,0.601l-0.077,0.364h0.972l-0.157,0.757H49.94l-0.947,4.474
		c-0.113,0.535-0.299,0.93-0.557,1.182C48.181,70.146,47.843,70.271,47.427,70.271z"/>
	<path fill="#FFFFFF" d="M55.229,65.243c0,0.571-0.104,1.092-0.31,1.562c-0.207,0.469-0.491,0.828-0.853,1.078
		c-0.36,0.251-0.776,0.376-1.246,0.376c-0.545,0-0.977-0.161-1.297-0.485c-0.319-0.324-0.479-0.766-0.479-1.323
		c0-0.563,0.102-1.08,0.303-1.552c0.203-0.469,0.486-0.836,0.854-1.098c0.365-0.262,0.787-0.393,1.266-0.393
		c0.553,0,0.984,0.164,1.297,0.492C55.073,64.229,55.229,64.678,55.229,65.243z M54.223,65.2c0-0.304-0.07-0.54-0.209-0.712
		s-0.337-0.256-0.595-0.256c-0.265,0-0.499,0.101-0.707,0.304c-0.208,0.202-0.37,0.478-0.483,0.823
		c-0.115,0.348-0.172,0.718-0.172,1.111c0,0.313,0.068,0.555,0.209,0.721c0.142,0.168,0.348,0.252,0.623,0.252
		c0.254,0,0.483-0.096,0.688-0.289c0.203-0.192,0.361-0.463,0.476-0.809C54.165,65.998,54.223,65.617,54.223,65.2z"/>
	<path fill="#FFFFFF" d="M58.932,63.398c0.176,0,0.327,0.018,0.459,0.052l-0.218,0.931c-0.153-0.04-0.298-0.061-0.435-0.061
		c-0.355,0-0.674,0.16-0.955,0.479c-0.28,0.32-0.477,0.739-0.586,1.259l-0.45,2.123h-1.003l1.003-4.697h0.78l-0.088,0.871h0.037
		c0.235-0.34,0.472-0.584,0.705-0.733C58.418,63.475,58.667,63.398,58.932,63.398z"/>
	<path fill="#FFFFFF" d="M23.298,79.059h-1.096l-0.157-3.578l-0.025-0.785l0.017-0.45h-0.025c-0.133,0.407-0.299,0.819-0.497,1.235
		l-1.636,3.578h-1.087l-0.225-6.211h0.973l0.081,3.61c0,0.386-0.019,0.875-0.055,1.47h0.025c0.235-0.625,0.436-1.129,0.603-1.508
		l1.644-3.572h0.956l0.131,3.563l0.013,0.718l-0.013,0.799h0.034c0.079-0.248,0.178-0.529,0.297-0.839
		c0.119-0.312,0.205-0.526,0.259-0.647l1.521-3.594h1.045L23.298,79.059z"/>
	<path fill="#FFFFFF" d="M29.795,76.118c0,0.571-0.103,1.092-0.31,1.562c-0.207,0.469-0.491,0.828-0.852,1.078
		c-0.361,0.251-0.777,0.376-1.247,0.376c-0.543,0-0.976-0.161-1.295-0.485c-0.32-0.324-0.48-0.766-0.48-1.323
		c0-0.563,0.101-1.08,0.304-1.552c0.202-0.469,0.486-0.836,0.852-1.098c0.366-0.262,0.788-0.393,1.266-0.393
		c0.552,0,0.984,0.164,1.295,0.492S29.795,75.553,29.795,76.118z M28.788,76.075c0-0.304-0.069-0.54-0.208-0.712
		s-0.337-0.256-0.595-0.256c-0.263,0-0.499,0.101-0.707,0.304c-0.208,0.202-0.37,0.478-0.484,0.823
		c-0.115,0.348-0.172,0.718-0.172,1.111c0,0.313,0.07,0.555,0.21,0.721c0.14,0.168,0.348,0.252,0.623,0.252
		c0.255,0,0.484-0.096,0.688-0.289c0.204-0.192,0.362-0.463,0.476-0.809C28.731,76.873,28.788,76.492,28.788,76.075z"/>
	<path fill="#FFFFFF" d="M33.498,74.273c0.175,0,0.329,0.018,0.458,0.052l-0.216,0.931c-0.153-0.04-0.297-0.061-0.434-0.061
		c-0.356,0-0.675,0.16-0.956,0.479c-0.28,0.32-0.476,0.739-0.586,1.259l-0.45,2.123h-1.002l1.002-4.697h0.782l-0.089,0.871h0.038
		c0.235-0.34,0.47-0.584,0.706-0.733C32.985,74.35,33.234,74.273,33.498,74.273z"/>
	<path fill="#FFFFFF" d="M36.223,74.273c0.507,0,0.886,0.252,1.139,0.756h0.034c0.037-0.412,0.089-0.768,0.157-1.061l0.323-1.521
		h0.99l-1.402,6.609h-0.781l0.081-0.748h-0.03c-0.249,0.301-0.49,0.516-0.722,0.643c-0.232,0.128-0.479,0.191-0.739,0.191
		c-0.405,0-0.722-0.145-0.952-0.433c-0.229-0.287-0.344-0.694-0.344-1.222c0-0.58,0.101-1.122,0.304-1.627
		c0.202-0.504,0.474-0.896,0.813-1.172C35.433,74.412,35.809,74.273,36.223,74.273z M35.653,78.336c0.232,0,0.462-0.115,0.69-0.35
		c0.228-0.232,0.411-0.534,0.548-0.908c0.138-0.374,0.206-0.752,0.206-1.135c0-0.258-0.062-0.465-0.185-0.621
		c-0.123-0.154-0.311-0.232-0.563-0.232c-0.241,0-0.466,0.109-0.675,0.327s-0.377,0.517-0.501,0.896s-0.187,0.767-0.187,1.16
		C34.986,78.048,35.209,78.336,35.653,78.336z"/>
	<path fill="#FFFFFF" d="M43.565,74.551c0,0.702-0.24,1.241-0.72,1.618s-1.149,0.565-2.007,0.565h-0.467l-0.488,2.322h-1.007
		l1.313-6.211h1.419c0.648,0,1.137,0.143,1.466,0.428C43.401,73.559,43.565,73.984,43.565,74.551z M40.553,75.88h0.399
		c0.504,0,0.895-0.112,1.17-0.338c0.276-0.226,0.414-0.544,0.414-0.958c0-0.309-0.083-0.533-0.249-0.675s-0.419-0.214-0.762-0.214
		h-0.506L40.553,75.88z"/>
	<path fill="#FFFFFF" d="M46.864,74.273c0.175,0,0.329,0.018,0.458,0.052l-0.216,0.931c-0.153-0.04-0.297-0.061-0.434-0.061
		c-0.356,0-0.675,0.16-0.956,0.479c-0.28,0.32-0.476,0.739-0.586,1.259l-0.45,2.123h-1.002l1.002-4.697h0.782l-0.089,0.871h0.038
		c0.235-0.34,0.47-0.584,0.706-0.733C46.352,74.35,46.601,74.273,46.864,74.273z"/>
	<path fill="#FFFFFF" d="M49.118,79.143c-0.558,0-0.993-0.156-1.306-0.472s-0.469-0.753-0.469-1.315s0.11-1.084,0.329-1.565
		c0.219-0.483,0.517-0.856,0.892-1.12s0.795-0.395,1.26-0.395c0.456,0,0.811,0.103,1.064,0.308c0.252,0.206,0.379,0.497,0.379,0.873
		c0,0.517-0.235,0.919-0.707,1.209c-0.473,0.29-1.145,0.437-2.017,0.437h-0.183l-0.009,0.131v0.123c0,0.314,0.08,0.562,0.24,0.74
		c0.16,0.178,0.398,0.268,0.716,0.268c0.204,0,0.406-0.027,0.607-0.082c0.201-0.053,0.439-0.145,0.714-0.275v0.795
		c-0.272,0.124-0.522,0.213-0.75,0.266C49.652,79.116,49.398,79.143,49.118,79.143z M49.764,75.039
		c-0.272,0-0.528,0.122-0.767,0.365c-0.239,0.242-0.411,0.564-0.516,0.964h0.124c0.532,0,0.949-0.075,1.249-0.228
		c0.3-0.15,0.451-0.365,0.451-0.644c0-0.146-0.045-0.257-0.136-0.338C50.077,75.079,49.942,75.039,49.764,75.039z"/>
	<path fill="#FFFFFF" d="M54.744,77.613c0,0.49-0.167,0.867-0.502,1.132c-0.334,0.265-0.799,0.397-1.393,0.397
		c-0.539,0-0.994-0.096-1.369-0.285v-0.861c0.435,0.255,0.875,0.382,1.326,0.382c0.273,0,0.496-0.058,0.666-0.17
		s0.256-0.269,0.256-0.463c0-0.146-0.049-0.269-0.146-0.372s-0.298-0.241-0.602-0.414c-0.354-0.189-0.604-0.383-0.75-0.58
		c-0.146-0.195-0.219-0.43-0.219-0.697c0-0.439,0.151-0.783,0.454-1.033c0.304-0.248,0.712-0.373,1.228-0.373
		c0.557,0,1.045,0.119,1.471,0.355l-0.322,0.748c-0.396-0.215-0.773-0.322-1.13-0.322c-0.207,0-0.375,0.047-0.504,0.141
		s-0.192,0.224-0.192,0.391c0,0.128,0.047,0.241,0.141,0.34c0.093,0.1,0.283,0.227,0.572,0.383c0.299,0.168,0.51,0.311,0.633,0.43
		c0.125,0.119,0.221,0.248,0.285,0.389C54.711,77.268,54.744,77.43,54.744,77.613z"/>
	<path fill="#FFFFFF" d="M58.574,77.613c0,0.49-0.167,0.867-0.502,1.132c-0.334,0.265-0.799,0.397-1.393,0.397
		c-0.539,0-0.994-0.096-1.369-0.285v-0.861c0.435,0.255,0.875,0.382,1.326,0.382c0.273,0,0.496-0.058,0.666-0.17
		s0.256-0.269,0.256-0.463c0-0.146-0.05-0.269-0.146-0.372c-0.098-0.104-0.299-0.241-0.602-0.414
		c-0.354-0.189-0.604-0.383-0.75-0.58c-0.146-0.195-0.219-0.43-0.219-0.697c0-0.439,0.151-0.783,0.454-1.033
		c0.304-0.248,0.712-0.373,1.228-0.373c0.557,0,1.045,0.119,1.471,0.355l-0.322,0.748c-0.396-0.215-0.773-0.322-1.13-0.322
		c-0.207,0-0.375,0.047-0.504,0.141s-0.192,0.224-0.192,0.391c0,0.128,0.047,0.241,0.141,0.34c0.093,0.1,0.283,0.227,0.572,0.383
		c0.299,0.168,0.51,0.311,0.633,0.43c0.125,0.119,0.221,0.248,0.285,0.389C58.541,77.268,58.574,77.43,58.574,77.613z"/>
	<path fill="#FFFFFF" d="M23.272,86.139c0,0.768-0.142,1.438-0.425,2.01c-0.283,0.572-0.695,1.014-1.236,1.322
		c-0.541,0.307-1.177,0.463-1.907,0.463H18l1.313-6.211h1.568c0.767,0,1.358,0.205,1.771,0.615
		C23.065,84.749,23.272,85.35,23.272,86.139z M19.755,89.079c0.501,0,0.939-0.122,1.313-0.365s0.661-0.587,0.86-1.028
		c0.2-0.441,0.299-0.945,0.299-1.513c0-0.521-0.125-0.918-0.374-1.19c-0.25-0.273-0.612-0.41-1.087-0.41h-0.621l-0.964,4.508
		L19.755,89.079L19.755,89.079z"/>
	<path fill="#FFFFFF" d="M25.628,90.018c-0.558,0-0.993-0.156-1.306-0.472s-0.469-0.753-0.469-1.315s0.11-1.084,0.329-1.565
		c0.219-0.483,0.517-0.856,0.892-1.12s0.795-0.395,1.26-0.395c0.456,0,0.811,0.103,1.064,0.308c0.253,0.206,0.38,0.497,0.38,0.873
		c0,0.517-0.236,0.919-0.708,1.209c-0.472,0.29-1.144,0.437-2.016,0.437h-0.183l-0.009,0.131v0.123c0,0.314,0.08,0.562,0.24,0.74
		c0.16,0.178,0.398,0.268,0.716,0.268c0.204,0,0.406-0.027,0.607-0.082c0.201-0.053,0.439-0.145,0.714-0.275v0.795
		c-0.272,0.124-0.522,0.213-0.75,0.266C26.163,89.991,25.909,90.018,25.628,90.018z M26.274,85.914
		c-0.272,0-0.527,0.122-0.767,0.365c-0.239,0.242-0.411,0.564-0.516,0.964h0.124c0.532,0,0.949-0.075,1.249-0.228
		c0.3-0.15,0.451-0.365,0.451-0.644c0-0.146-0.045-0.257-0.136-0.338C26.587,85.954,26.452,85.914,26.274,85.914z"/>
	<path fill="#FFFFFF" d="M28.914,89.934l-0.557-4.699h0.985l0.234,2.541c0.04,0.449,0.06,0.871,0.06,1.262h0.03
		c0.079-0.209,0.178-0.443,0.297-0.701c0.119-0.257,0.211-0.443,0.276-0.561l1.321-2.541h1.062l-2.541,4.699H28.914L28.914,89.934z"
		/>
	<path fill="#FFFFFF" d="M34.256,90.018c-0.558,0-0.993-0.156-1.306-0.472s-0.469-0.753-0.469-1.315s0.11-1.084,0.329-1.565
		c0.219-0.483,0.517-0.856,0.892-1.12s0.795-0.395,1.26-0.395c0.456,0,0.811,0.103,1.064,0.308c0.253,0.206,0.38,0.497,0.38,0.873
		c0,0.517-0.236,0.919-0.708,1.209c-0.472,0.29-1.144,0.437-2.016,0.437H33.5l-0.009,0.131v0.123c0,0.314,0.08,0.562,0.24,0.74
		c0.16,0.178,0.398,0.268,0.716,0.268c0.204,0,0.406-0.027,0.607-0.082c0.201-0.053,0.439-0.145,0.714-0.275v0.795
		c-0.272,0.124-0.522,0.213-0.75,0.266C34.791,89.991,34.537,90.018,34.256,90.018z M34.902,85.914
		c-0.272,0-0.527,0.122-0.767,0.365c-0.239,0.242-0.411,0.564-0.516,0.964h0.124c0.532,0,0.949-0.075,1.249-0.228
		c0.3-0.15,0.451-0.365,0.451-0.644c0-0.146-0.045-0.257-0.136-0.338C35.215,85.954,35.08,85.914,34.902,85.914z"/>
	<path fill="#FFFFFF" d="M37.754,89.934H36.76l1.402-6.611h0.998L37.754,89.934z"/>
	<path fill="#FFFFFF" d="M43.449,86.993c0,0.571-0.104,1.092-0.31,1.562c-0.206,0.469-0.491,0.828-0.852,1.078
		c-0.361,0.251-0.777,0.376-1.247,0.376c-0.543,0-0.976-0.161-1.295-0.485c-0.32-0.324-0.48-0.766-0.48-1.323
		c0-0.563,0.101-1.08,0.304-1.552c0.202-0.469,0.486-0.836,0.852-1.098c0.366-0.262,0.788-0.393,1.266-0.393
		c0.552,0,0.984,0.164,1.295,0.492S43.449,86.428,43.449,86.993z M42.442,86.95c0-0.304-0.069-0.54-0.208-0.712
		c-0.139-0.172-0.337-0.256-0.595-0.256c-0.263,0-0.499,0.101-0.707,0.304c-0.208,0.202-0.37,0.478-0.484,0.823
		c-0.115,0.348-0.172,0.718-0.172,1.111c0,0.313,0.07,0.555,0.21,0.721c0.14,0.168,0.348,0.252,0.623,0.252
		c0.255,0,0.484-0.096,0.688-0.289c0.204-0.192,0.362-0.463,0.476-0.809C42.385,87.748,42.442,87.367,42.442,86.95z"/>
	<path fill="#FFFFFF" d="M46.221,90.018c-0.513,0-0.894-0.248-1.143-0.748h-0.042c-0.02,0.275-0.055,0.537-0.106,0.787l-0.408,1.967
		h-0.99l1.436-6.789h0.782l-0.089,0.8h0.038c0.445-0.589,0.932-0.884,1.461-0.884c0.405,0,0.722,0.146,0.952,0.438
		s0.344,0.696,0.344,1.215c0,0.578-0.099,1.118-0.297,1.621c-0.198,0.502-0.468,0.895-0.81,1.174
		C47.007,89.878,46.631,90.018,46.221,90.018z M46.786,85.965c-0.229,0-0.458,0.112-0.684,0.338
		c-0.227,0.225-0.412,0.523-0.554,0.895c-0.143,0.371-0.215,0.755-0.215,1.15c0,0.272,0.066,0.484,0.198,0.637
		c0.132,0.152,0.318,0.228,0.559,0.228c0.241,0,0.466-0.11,0.675-0.334s0.375-0.521,0.497-0.892
		c0.122-0.373,0.183-0.762,0.183-1.168C47.444,86.25,47.225,85.965,46.786,85.965z"/>
	<path fill="#FFFFFF" d="M52.203,85.148c0.623,0,0.982,0.334,1.079,0.998h0.034c0.213-0.328,0.453-0.576,0.725-0.744
		c0.271-0.17,0.552-0.254,0.843-0.254c0.378,0,0.664,0.108,0.86,0.326c0.197,0.217,0.295,0.521,0.295,0.914
		c0,0.182-0.03,0.438-0.094,0.77l-0.594,2.773h-0.998l0.606-2.854c0.054-0.27,0.08-0.458,0.08-0.564
		c0-0.365-0.171-0.549-0.515-0.549c-0.305,0-0.592,0.176-0.855,0.527c-0.266,0.352-0.458,0.816-0.579,1.396l-0.43,2.043h-0.998
		l0.606-2.854c0.049-0.232,0.072-0.412,0.072-0.54c0-0.382-0.166-0.573-0.496-0.573c-0.313,0-0.601,0.18-0.865,0.54
		c-0.265,0.358-0.461,0.839-0.587,1.437l-0.417,1.992h-1.002l1.002-4.699h0.782l-0.089,0.871h0.038
		C51.127,85.469,51.626,85.148,52.203,85.148z"/>
	<path fill="#FFFFFF" d="M58.591,90.018c-0.558,0-0.993-0.156-1.306-0.472c-0.313-0.313-0.471-0.753-0.471-1.315
		s0.109-1.084,0.33-1.565c0.219-0.483,0.517-0.856,0.893-1.12c0.375-0.264,0.795-0.395,1.259-0.395c0.456,0,0.812,0.103,1.063,0.308
		c0.254,0.206,0.381,0.497,0.381,0.873c0,0.517-0.235,0.919-0.707,1.209c-0.473,0.29-1.145,0.437-2.016,0.437h-0.184l-0.009,0.131
		v0.123c0,0.314,0.079,0.562,0.239,0.74c0.16,0.178,0.398,0.268,0.717,0.268c0.203,0,0.406-0.027,0.607-0.082
		c0.2-0.053,0.438-0.145,0.713-0.275v0.795c-0.271,0.124-0.521,0.213-0.75,0.266C59.126,89.991,58.871,90.018,58.591,90.018z
		 M59.236,85.914c-0.271,0-0.527,0.122-0.768,0.365c-0.24,0.242-0.41,0.564-0.516,0.964h0.123c0.531,0,0.947-0.075,1.249-0.228
		c0.3-0.15,0.45-0.365,0.45-0.644c0-0.146-0.047-0.257-0.137-0.338C59.55,85.954,59.415,85.914,59.236,85.914z"/>
	<path fill="#FFFFFF" d="M63.878,89.934l0.603-2.854c0.053-0.255,0.078-0.44,0.078-0.558c0-0.371-0.184-0.557-0.549-0.557
		c-0.203,0-0.404,0.081-0.604,0.242s-0.377,0.395-0.535,0.699c-0.159,0.304-0.277,0.648-0.357,1.033l-0.416,1.992h-1.002
		l1.002-4.697h0.781l-0.089,0.871h0.038c0.234-0.336,0.479-0.578,0.727-0.729c0.25-0.151,0.521-0.228,0.813-0.228
		c0.38,0,0.673,0.106,0.882,0.322c0.208,0.215,0.312,0.521,0.312,0.918c0,0.194-0.031,0.451-0.098,0.768l-0.582,2.775h-1.003V89.934
		z"/>
	<path fill="#FFFFFF" d="M67.873,89.211c0.191,0,0.406-0.044,0.643-0.132v0.756c-0.1,0.048-0.233,0.091-0.404,0.127
		c-0.17,0.037-0.34,0.056-0.51,0.056c-0.775,0-1.164-0.35-1.164-1.049c0-0.162,0.022-0.348,0.068-0.557l0.514-2.422h-0.688
		l0.09-0.467l0.807-0.35l0.549-0.984h0.619l-0.221,1.045h1.186l-0.166,0.756H68.02l-0.52,2.43c-0.036,0.156-0.055,0.286-0.055,0.393
		c0,0.121,0.035,0.219,0.105,0.291C67.621,89.175,67.729,89.211,67.873,89.211z"/>
</g>
<g>
	<path fill="#FFFFFF" d="M22.824,50.781h-3.766l2.282-10.969h-3.053l0.665-3.111h9.9l-0.684,3.111h-3.063L22.824,50.781z"/>
	<path fill="#FFFFFF" d="M32.064,50.973c-1.342,0-2.377-0.361-3.106-1.087s-1.093-1.763-1.093-3.111s0.255-2.566,0.766-3.655
		c0.51-1.088,1.228-1.934,2.152-2.538c0.925-0.604,2.003-0.905,3.236-0.905c1.342,0,2.377,0.363,3.106,1.088
		c0.729,0.726,1.093,1.763,1.093,3.111s-0.255,2.566-0.766,3.655c-0.511,1.088-1.228,1.935-2.152,2.538
		C34.376,50.672,33.297,50.973,32.064,50.973z M33.586,42.479c-0.527,0-0.978,0.448-1.353,1.344
		c-0.376,0.896-0.563,1.921-0.563,3.077c0,0.854,0.27,1.281,0.809,1.281c0.521,0,0.973-0.446,1.358-1.339
		c0.385-0.893,0.578-1.92,0.578-3.082c0-0.423-0.074-0.743-0.222-0.958C34.045,42.586,33.843,42.479,33.586,42.479z"/>
	<path fill="#FFFFFF" d="M43.424,50.973c-1.342,0-2.377-0.361-3.106-1.087s-1.093-1.763-1.093-3.111s0.255-2.566,0.766-3.655
		c0.51-1.088,1.228-1.934,2.152-2.538c0.925-0.604,2.003-0.905,3.236-0.905c1.342,0,2.377,0.363,3.106,1.088
		c0.729,0.726,1.093,1.763,1.093,3.111s-0.255,2.566-0.766,3.655c-0.511,1.088-1.228,1.935-2.152,2.538
		C45.735,50.672,44.657,50.973,43.424,50.973z M44.946,42.479c-0.527,0-0.978,0.448-1.353,1.344
		c-0.376,0.896-0.563,1.921-0.563,3.077c0,0.854,0.27,1.281,0.809,1.281c0.521,0,0.973-0.446,1.358-1.339
		c0.385-0.893,0.578-1.92,0.578-3.082c0-0.423-0.074-0.743-0.222-0.958C45.405,42.586,45.202,42.479,44.946,42.479z"/>
	<path fill="#FFFFFF" d="M53.725,50.781h-3.728l3.168-14.985h3.728L53.725,50.781z"/>
	<path fill="#FFFFFF" d="M64.159,46.996c0,1.277-0.418,2.26-1.252,2.947c-0.835,0.687-2.035,1.03-3.603,1.03
		c-1.426,0-2.568-0.201-3.429-0.605v-2.995c0.591,0.321,1.14,0.546,1.646,0.674c0.508,0.129,1.021,0.193,1.541,0.193
		c0.438,0,0.765-0.059,0.982-0.178c0.219-0.119,0.327-0.284,0.327-0.496c0-0.225-0.083-0.419-0.25-0.583s-0.585-0.435-1.252-0.814
		c-0.681-0.372-1.177-0.799-1.488-1.281c-0.312-0.482-0.467-1.069-0.467-1.762c0-1.104,0.39-1.955,1.165-2.552
		c0.777-0.597,1.881-0.896,3.313-0.896c0.719,0,1.373,0.083,1.965,0.25c0.591,0.167,1.166,0.424,1.725,0.771l-1.166,2.427
		c-0.424-0.276-0.861-0.496-1.314-0.66c-0.451-0.164-0.843-0.246-1.17-0.246c-0.488,0-0.73,0.218-0.73,0.655
		c0,0.186,0.101,0.35,0.303,0.491c0.202,0.141,0.531,0.324,0.987,0.549C63.438,44.633,64.159,45.661,64.159,46.996z"/>
	<path fill="#FFFFFF" d="M69.99,50.973c-1.361,0-2.422-0.38-3.18-1.141c-0.758-0.761-1.137-1.818-1.137-3.173
		c0-1.354,0.27-2.576,0.805-3.665c0.537-1.088,1.271-1.913,2.205-2.475c0.936-0.562,2.016-0.842,3.241-0.842
		c1.22,0,2.181,0.276,2.88,0.828c0.699,0.552,1.049,1.287,1.049,2.206c0,1.29-0.502,2.281-1.506,2.971
		c-1.006,0.69-2.457,1.036-4.357,1.036h-0.568v0.154c0,0.95,0.526,1.425,1.579,1.425c0.507,0,1.005-0.075,1.493-0.226
		c0.486-0.151,1.043-0.39,1.666-0.718v2.639c-0.721,0.366-1.391,0.621-2.014,0.766C71.523,50.9,70.805,50.973,69.99,50.973z
		 M71.512,42.2c-0.392,0-0.758,0.223-1.099,0.669c-0.34,0.446-0.545,0.952-0.616,1.517h0.279c0.699,0,1.249-0.133,1.646-0.399
		c0.397-0.267,0.598-0.618,0.598-1.055c0-0.206-0.064-0.379-0.192-0.52C71.999,42.271,71.794,42.2,71.512,42.2z"/>
	<path fill="#FFFFFF" d="M81.139,47.978c0.424,0,1.012-0.15,1.762-0.453v2.803c-0.873,0.43-1.963,0.645-3.273,0.645
		c-0.95,0-1.671-0.203-2.162-0.611c-0.49-0.407-0.736-1.077-0.736-2.008c0-0.488,0.078-1.092,0.231-1.811l0.81-3.872h-1.483
		l0.396-1.83l2.101-0.848l1.319-2.311h2.483l-0.472,2.186h2.773l-0.607,2.803h-2.782l-0.81,3.688
		c-0.104,0.494-0.154,0.832-0.154,1.011C80.531,47.776,80.732,47.978,81.139,47.978z"/>
</g>
</svg>
