<?xml version="1.0" encoding="utf-8"?>
<!-- Generator: Adobe Illustrator 15.1.0, SVG Export Plug-In . SVG Version: 6.00 Build 0)  -->
<!DOCTYPE svg PUBLIC "-//W3C//DTD SVG 1.1 Tiny//EN" "http://www.w3.org/Graphics/SVG/1.1/DTD/svg11-tiny.dtd">
<svg version="1.1" baseProfile="tiny" id="Layer_1" xmlns="http://www.w3.org/2000/svg" xmlns:xlink="http://www.w3.org/1999/xlink"
	 x="0px" y="0px" width="80px" height="80px" viewBox="0 0 80 80" xml:space="preserve">
<g>
	<path fill="#333333" d="M63.229,41H31.318c-0.766,0-1.292,0.165-1.583,0.335c-0.29,0.172-0.586,0.501-0.89,1.106L19.889,60H55.26
		l8.758-17.458c0.291-0.634,0.437-1.019,0.437-1.101C64.413,41.167,64.004,41,63.229,41z"/>
	<path fill="#333333" d="M27.435,38.145c0.344-0.2,1.233-0.145,2.669-0.145H53v-2.206C53,34.779,52.625,34,51.635,34h-13.74
		c-1.239,0-2.003,0.066-2.293-0.081c-0.29-0.144-0.528-0.524-0.712-1.277l-0.237-0.874c-0.171-0.645-0.366-1.217-0.584-1.369
		C33.851,30.249,33.367,30,32.617,30H25.3c-0.842,0-1.409,0.269-1.7,0.426c-0.291,0.17-0.513,0.636-0.671,1.204l-0.238,0.956
		c-0.21,0.749-0.445,1.101-0.703,1.27C21.731,34.028,21.162,34,20.279,34h-1.227c-0.633,0-1.295,0.233-1.501,0.424
		C17.346,34.617,17,35.156,17,35.775v20.879l8.747-16.492C26.366,38.962,27.093,38.34,27.435,38.145z"/>
</g>
</svg>
