<?xml version="1.0" encoding="utf-8"?>
<!-- Generator: Adobe Illustrator 15.1.0, SVG Export Plug-In . SVG Version: 6.00 Build 0)  -->
<!DOCTYPE svg PUBLIC "-//W3C//DTD SVG 1.1 Tiny//EN" "http://www.w3.org/Graphics/SVG/1.1/DTD/svg11-tiny.dtd">
<svg version="1.1" baseProfile="tiny" id="Layer_1" xmlns="http://www.w3.org/2000/svg" xmlns:xlink="http://www.w3.org/1999/xlink"
	 x="0px" y="0px" width="80px" height="80px" viewBox="0 0 80 80" xml:space="preserve">
<g>
	<path fill="#333333" d="M58,16V4H46v12H34V4H22v12H10v60h60V16H58z M17,35.775c0-0.619,0.346-1.158,0.552-1.352
		C17.757,34.233,18.419,34,19.053,34h1.227c0.882,0,1.452,0.052,1.709-0.121c0.258-0.169,0.492-0.565,0.703-1.314l0.238-0.875
		c0.158-0.567,0.38-1.111,0.671-1.281C23.89,30.251,24.457,30,25.299,30h7.317c0.75,0,1.234,0.266,1.452,0.417
		c0.218,0.151,0.413,0.646,0.584,1.291l0.237,0.955c0.184,0.753,0.422,1.089,0.712,1.233C35.891,34.042,36.656,34,37.895,34h13.74
		C52.625,34,53,34.779,53,35.794V38H30.104c-1.437,0-2.326-0.055-2.67,0.145c-0.341,0.195-1.068,0.817-1.688,2.018L17,56.654V35.775
		z M64.018,42.542L55.26,60H19.889l8.957-17.52c0.303-0.605,0.6-1.022,0.89-1.194c0.29-0.17,0.816-0.286,1.582-0.286h31.911
		c0.775,0,1.186,0.167,1.226,0.441C64.453,41.523,64.309,41.908,64.018,42.542z"/>
</g>
</svg>
