<?xml version="1.0" encoding="utf-8"?>
<!-- Generator: Adobe Illustrator 15.1.0, SVG Export Plug-In . SVG Version: 6.00 Build 0)  -->
<!DOCTYPE svg PUBLIC "-//W3C//DTD SVG 1.1 Tiny//EN" "http://www.w3.org/Graphics/SVG/1.1/DTD/svg11-tiny.dtd">
<svg version="1.1" baseProfile="tiny" id="Layer_1" xmlns="http://www.w3.org/2000/svg" xmlns:xlink="http://www.w3.org/1999/xlink"
	 x="0px" y="0px" width="80px" height="80px" viewBox="0 0 80 80" xml:space="preserve">
<path fill="#333333" d="M18.673,46.146c23.8,26.971,43.155,0,43.155,0C38.028,19.81,18.673,46.146,18.673,46.146z M40.249,54.42
	c-4.489,0-8.13-3.643-8.13-8.131c0-4.492,3.641-8.134,8.13-8.134c4.494,0,8.134,3.642,8.134,8.134
	C48.383,50.777,44.742,54.42,40.249,54.42z"/>
<path fill="#333333" d="M40.249,51.648c-2.958,0-5.359-2.4-5.359-5.359c0-2.962,2.401-5.361,5.359-5.361
	c2.962,0,5.362,2.399,5.362,5.361C45.611,49.248,43.211,51.648,40.249,51.648z"/>
<path fill="#333333" d="M40.249,40.928c-2.958,0-5.359,2.399-5.359,5.361c0,2.959,2.401,5.359,5.359,5.359
	c2.962,0,5.362-2.4,5.362-5.359C45.611,43.327,43.211,40.928,40.249,40.928z"/>
</svg>
