<?xml version="1.0" encoding="utf-8"?>
<!-- Generator: Adobe Illustrator 15.1.0, SVG Export Plug-In . SVG Version: 6.00 Build 0)  -->
<!DOCTYPE svg PUBLIC "-//W3C//DTD SVG 1.1 Tiny//EN" "http://www.w3.org/Graphics/SVG/1.1/DTD/svg11-tiny.dtd">
<svg version="1.1" baseProfile="tiny" id="Layer_1" xmlns="http://www.w3.org/2000/svg" xmlns:xlink="http://www.w3.org/1999/xlink"
	 x="0px" y="0px" width="80px" height="80px" viewBox="0 0 80 80" xml:space="preserve">
<g>
	<g>
		<path fill="#333333" d="M58,16V4H46v12H34V4H22v12H10v60h60V16H58z M18.673,46.146c0,0,19.355-26.336,43.155,0
			C61.828,46.146,42.473,73.117,18.673,46.146z"/>
		<path fill="#333333" d="M40.249,38.155c-4.489,0-8.13,3.642-8.13,8.134c0,4.488,3.641,8.131,8.13,8.131
			c4.494,0,8.134-3.643,8.134-8.131C48.383,41.797,44.742,38.155,40.249,38.155z M40.249,51.648c-2.958,0-5.359-2.4-5.359-5.359
			c0-2.962,2.401-5.361,5.359-5.361c2.962,0,5.362,2.399,5.362,5.361C45.611,49.248,43.211,51.648,40.249,51.648z"/>
	</g>
</g>
</svg>
