<?xml version="1.0" encoding="utf-8"?>
<!-- Generator: Adobe Illustrator 16.0.0, SVG Export Plug-In . SVG Version: 6.00 Build 0)  -->
<!DOCTYPE svg PUBLIC "-//W3C//DTD SVG 1.1 Tiny//EN" "http://www.w3.org/Graphics/SVG/1.1/DTD/svg11-tiny.dtd">
<svg version="1.1" baseProfile="tiny" id="Layer_1" xmlns="http://www.w3.org/2000/svg" xmlns:xlink="http://www.w3.org/1999/xlink"
	 x="0px" y="0px" width="136px" height="142px" viewBox="0 0 136 142" xml:space="preserve">
<path fill="#58595B" d="M80.434,78.539c0.678,10.414,9.646,17.928,19.194,17.914c12.908-0.012,18.667-12.064,20.474-21.752
	C127.609,34.315,96.697,3.656,59.96,8.16c-19.937,2.445-48.971,24.759-44.787,60.142c3.727,31.556,39.58,56.212,78.056,39.671
	c16.635-7.156,23.711,23.221,5.119,24.311c-3.517-2.055-3-8.145-4.701-12.012c-0.369-1.569-1.131-2.885-2.142-3.719
	c-0.796-0.947-1.819-1.552-2.97-1.628c-2.838-0.19-5.355,2.861-5.622,6.816c-0.185,2.771,0.791,5.245,2.366,6.546
	c0.414,0.492,0.887,0.895,1.41,1.174c3.945,4.432,13.037,5.826,18.055,4.102c11.99-4.121,10.826-25.851-3.837-28.152
	c-9.278-1.457-13.55,3.826-19.194,5.117c-38.132,8.701-60.616-26.934-56.301-55.021c2.827-18.389,19.001-33.68,35.827-37.11
	c18.694-3.813,39.768,2.739,40.946,16.635C103.811,54.212,79.193,59.458,80.434,78.539z"/>
</svg>
